<?xml version="1.0" encoding="UTF-8"?>
<svg xmlns="http://www.w3.org/2000/svg" xmlns:xlink="http://www.w3.org/1999/xlink" width="30px" height="24px" viewBox="0 0 29 24" version="1.1">
<g id="surface1">
<rect x="0" y="0" width="29" height="24" style="fill:rgb(100%,100%,100%);fill-opacity:1;stroke:none;"/>
<path style=" stroke:none;fill-rule:nonzero;fill:rgb(9.019608%,38.431373%,23.137255%);fill-opacity:1;" d="M 13.117188 3.242188 C 13.644531 3.226562 14.203125 3.238281 14.730469 3.238281 C 14.921875 3.238281 15.453125 3.230469 15.621094 3.25 L 15.625 3.261719 C 15.648438 3.5 15.605469 4.203125 15.671875 4.378906 C 15.835938 4.441406 17.449219 4.414062 17.738281 4.414062 C 17.746094 4.921875 17.734375 5.46875 17.757812 5.96875 C 17.941406 5.988281 18.265625 5.972656 18.402344 5.996094 C 18.472656 5.996094 18.773438 5.980469 18.8125 6.015625 L 18.820312 6.039062 C 18.835938 6.121094 18.875 6.289062 18.867188 6.367188 C 19.507812 6.375 20.152344 6.378906 20.792969 6.378906 C 20.851562 7.164062 20.789062 8.113281 20.828125 8.933594 C 21.492188 8.953125 22.183594 8.929688 22.839844 8.953125 C 22.851562 9.074219 22.847656 9.492188 22.914062 9.542969 C 23 9.609375 23.375 9.578125 23.511719 9.597656 C 23.652344 9.589844 25.039062 9.597656 25.078125 9.613281 C 25.121094 9.820312 25.140625 11.996094 25.089844 12.230469 L 25.082031 12.238281 C 24.972656 12.277344 24.355469 12.25 24.210938 12.25 C 23.9375 12.25 23.671875 12.246094 23.390625 12.261719 C 23.210938 12.460938 23.566406 13.625 23.082031 13.851562 C 22.863281 14.015625 22.304688 13.917969 22.035156 13.945312 C 21.996094 13.949219 21.828125 13.945312 21.785156 13.941406 C 21.628906 13.953125 21.3125 13.9375 21.1875 13.964844 C 21.214844 14.226562 21.199219 14.519531 21.222656 14.785156 C 21.589844 14.824219 22.089844 14.792969 22.472656 14.804688 L 22.6875 14.804688 C 22.695312 14.941406 22.726562 15.742188 22.6875 15.816406 C 22.535156 15.839844 22.171875 15.835938 22 15.832031 C 21.800781 15.828125 21.523438 15.839844 21.328125 15.828125 C 21.261719 15.828125 21.191406 15.824219 21.125 15.824219 C 21.113281 15.59375 21.113281 15.34375 21.105469 15.113281 L 21.097656 14.820312 C 20.992188 14.800781 20.902344 14.785156 20.800781 14.757812 C 20.796875 14.375 20.800781 13.972656 20.789062 13.59375 C 20.472656 13.574219 19.90625 13.566406 19.597656 13.617188 C 19.636719 14.1875 19.765625 14.539062 19.441406 15.027344 C 19.40625 15.082031 19.210938 15.386719 19.1875 15.433594 C 19.207031 15.71875 19.269531 15.804688 19.203125 16.105469 C 19.347656 16.320312 19.527344 16.488281 19.488281 16.765625 C 19.472656 16.871094 19.34375 17.105469 19.28125 17.164062 C 19.203125 17.289062 19.039062 17.699219 18.90625 17.722656 C 18.675781 17.761719 18.824219 17.488281 18.847656 17.394531 C 18.804688 17.320312 18.691406 17.320312 18.71875 17.222656 C 18.769531 17.167969 18.796875 17.152344 18.859375 17.117188 C 18.910156 17.046875 18.933594 16.980469 18.964844 16.898438 C 19.09375 16.578125 18.660156 16.660156 18.523438 16.679688 C 18.410156 16.691406 18.386719 16.597656 18.222656 16.664062 C 18.15625 16.71875 18.148438 16.730469 18.101562 16.800781 C 18.125 16.890625 18.136719 16.976562 18.183594 17.054688 C 18.234375 17.144531 18.417969 17.203125 18.382812 17.292969 L 18.308594 17.34375 C 18.269531 17.367188 18.265625 17.367188 18.25 17.40625 C 18.253906 17.550781 18.359375 17.550781 18.3125 17.699219 C 17.929688 17.753906 18.042969 17.5 17.9375 17.324219 C 17.652344 16.855469 17.347656 16.667969 17.886719 16.175781 C 17.882812 15.863281 17.84375 15.804688 17.917969 15.46875 C 17.707031 14.988281 17.371094 14.730469 17.460938 14.101562 C 17.484375 13.9375 17.507812 13.789062 17.523438 13.625 C 17.3125 13.605469 17.105469 13.609375 16.894531 13.59375 C 16.691406 13.601562 16.578125 13.640625 16.449219 13.800781 C 15.773438 14.605469 15.574219 15.199219 15.636719 16.257812 C 15.691406 17.1875 15.855469 17.652344 16.164062 18.511719 C 16.4375 18.585938 16.917969 18.609375 17.214844 18.636719 C 17.628906 18.671875 18.042969 18.714844 18.457031 18.761719 L 19.625 18.902344 C 20.105469 18.957031 20.511719 19 21 19.09375 C 21.441406 19.179688 21.878906 19.28125 22.3125 19.398438 C 22.53125 19.457031 22.761719 19.53125 22.980469 19.585938 C 23.132812 19.628906 23.96875 19.859375 24.03125 19.964844 C 23.9375 20.058594 23.167969 19.90625 22.996094 19.910156 C 22.960938 19.910156 22.75 19.890625 22.707031 19.878906 C 22.652344 19.886719 22.320312 19.863281 22.242188 19.859375 C 21.84375 19.839844 21.441406 19.816406 21.042969 19.792969 C 20.289062 19.75 19.496094 19.742188 18.738281 19.714844 C 16.449219 19.648438 14.160156 19.628906 11.871094 19.660156 C 11.699219 19.664062 11.523438 19.664062 11.347656 19.667969 C 11.148438 19.683594 10.921875 19.683594 10.71875 19.6875 L 9.820312 19.714844 C 9.71875 19.714844 9.464844 19.730469 9.382812 19.722656 C 9.214844 19.742188 8.992188 19.742188 8.816406 19.75 L 7.871094 19.785156 C 7.664062 19.792969 7.070312 19.84375 6.902344 19.835938 C 6.777344 19.863281 6.429688 19.871094 6.289062 19.886719 C 5.75 19.933594 5.25 19.980469 4.707031 19.964844 C 4.90625 19.898438 5.101562 19.8125 5.300781 19.746094 C 5.527344 19.671875 5.765625 19.609375 5.996094 19.546875 C 6.363281 19.449219 6.75 19.339844 7.117188 19.253906 C 7.828125 19.09375 8.539062 18.964844 9.257812 18.867188 C 9.707031 18.808594 10.160156 18.757812 10.609375 18.710938 C 10.945312 18.679688 12.578125 18.601562 12.730469 18.515625 C 12.90625 18.417969 13.238281 17.195312 13.292969 16.964844 C 13.394531 16.421875 13.515625 15.632812 13.386719 15.09375 C 13.242188 14.484375 12.894531 14.050781 12.457031 13.632812 C 12.3125 13.492188 12.183594 13.339844 12.007812 13.230469 C 11.226562 13.183594 10.34375 13.25 9.5625 13.21875 C 9.347656 13.234375 9.046875 13.226562 8.828125 13.230469 C 8.730469 13.242188 8.628906 13.234375 8.550781 13.28125 C 8.523438 13.4375 8.535156 14.078125 8.53125 14.269531 C 8.125 14.269531 7.703125 14.265625 7.296875 14.28125 C 7.292969 14.414062 7.289062 14.550781 7.289062 14.6875 C 7.40625 14.707031 7.710938 14.695312 7.785156 14.75 C 7.832031 14.875 7.847656 15.683594 7.777344 15.804688 C 7.734375 15.875 7.011719 15.804688 6.898438 15.777344 C 6.875 15.148438 6.921875 14.472656 6.90625 13.835938 C 6.90625 13.742188 6.917969 13.351562 6.894531 13.273438 C 6.855469 13.246094 6.820312 13.25 6.769531 13.246094 C 6.503906 13.246094 6.054688 13.257812 5.800781 13.230469 C 5.757812 13.199219 5.707031 13.152344 5.667969 13.117188 C 5.414062 13.082031 4.808594 13.136719 4.644531 13.058594 C 4.402344 12.953125 4.421875 12.640625 4.402344 12.40625 C 4.140625 12.394531 3.851562 12.394531 3.589844 12.390625 C 3.515625 12.394531 3.375 12.390625 3.296875 12.390625 C 3.292969 12.257812 3.265625 11.351562 3.320312 11.308594 L 3.367188 11.328125 C 3.527344 11.425781 3.683594 11.535156 3.84375 11.636719 C 4.003906 11.738281 4.171875 11.828125 4.339844 11.917969 C 4.367188 11.910156 4.355469 11.917969 4.367188 11.898438 C 4.367188 11.394531 4.355469 10.804688 4.382812 10.304688 C 4.558594 10.289062 4.8125 10.292969 5.003906 10.289062 L 5.96875 10.261719 C 6.039062 10.253906 6.152344 10.246094 6.226562 10.238281 C 6.238281 10.097656 6.230469 9.949219 6.242188 9.796875 C 6.234375 9.710938 6.242188 9.480469 6.246094 9.386719 L 6.261719 8.601562 C 6.320312 8.601562 6.375 8.601562 6.4375 8.601562 C 6.519531 8.585938 6.777344 8.589844 6.871094 8.589844 C 7.152344 8.589844 7.433594 8.589844 7.714844 8.585938 C 7.714844 8.230469 7.707031 7.800781 7.734375 7.457031 C 7.914062 7.445312 8.136719 7.4375 8.316406 7.445312 L 8.324219 7.445312 C 8.660156 7.382812 9.9375 7.488281 10.175781 7.378906 C 10.207031 7.339844 10.203125 7.238281 10.207031 7.183594 C 10.191406 7.027344 10.210938 6.476562 10.210938 6.292969 C 10.207031 5.644531 10.210938 4.996094 10.222656 4.347656 L 10.226562 4.3125 C 10.277344 4.277344 11.757812 4.289062 11.902344 4.277344 C 12.070312 4.261719 12.929688 4.34375 13.039062 4.292969 C 13.050781 4.265625 13.058594 4.253906 13.074219 4.234375 L 13.085938 4.214844 C 13.078125 3.933594 13.105469 3.53125 13.117188 3.242188 Z M 13.117188 3.242188 "/>
<path style=" stroke:none;fill-rule:nonzero;fill:rgb(73.333335%,83.529413%,29.411766%);fill-opacity:1;" d="M 7.273438 13.21875 L 7.582031 13.21875 L 7.65625 13.238281 L 7.660156 13.257812 L 7.65625 13.253906 L 7.667969 13.28125 C 7.808594 13.296875 7.941406 13.316406 8.085938 13.320312 C 8.207031 13.324219 8.386719 13.246094 8.480469 13.324219 C 8.519531 13.3125 8.523438 13.308594 8.550781 13.28125 C 8.523438 13.4375 8.535156 14.078125 8.53125 14.269531 C 8.125 14.269531 7.703125 14.265625 7.296875 14.28125 C 7.292969 14.414062 7.289062 14.550781 7.289062 14.6875 C 7.261719 14.566406 7.257812 13.367188 7.273438 13.21875 Z M 7.273438 13.21875 "/>
<path style=" stroke:none;fill-rule:nonzero;fill:rgb(8.627451%,34.117648%,19.215687%);fill-opacity:1;" d="M 9.5625 13.21875 C 9.433594 13.207031 9.328125 13.210938 9.199219 13.191406 L 9.207031 13.191406 L 9.054688 13.167969 C 9.113281 13.132812 9.8125 13.121094 9.925781 13.125 C 10.117188 13.136719 10.339844 13.125 10.535156 13.113281 C 10.6875 13.101562 10.816406 13.132812 10.964844 13.136719 C 11.035156 13.136719 11.097656 13.101562 11.171875 13.105469 L 11.160156 13.140625 L 11.179688 13.148438 L 11.222656 13.109375 C 11.363281 13.121094 12.058594 13.148438 12.160156 13.226562 C 12.375 13.386719 12.636719 13.683594 12.839844 13.875 C 12.839844 13.882812 12.84375 13.945312 12.847656 13.945312 C 13 14.074219 13.132812 14.199219 13.238281 14.371094 C 13.296875 14.46875 13.226562 14.542969 13.332031 14.609375 C 13.363281 14.628906 13.367188 14.632812 13.378906 14.664062 L 13.335938 14.644531 C 13.347656 14.761719 13.507812 14.886719 13.449219 15.023438 C 13.445312 15.023438 13.476562 15.066406 13.472656 15.074219 L 13.433594 15.070312 C 13.40625 15.097656 13.414062 15.085938 13.417969 15.125 L 13.453125 15.132812 L 13.476562 15.101562 C 13.539062 15.1875 13.570312 15.820312 13.527344 15.945312 C 13.503906 15.898438 13.539062 15.851562 13.519531 15.804688 L 13.503906 15.847656 C 13.5 15.839844 13.484375 15.820312 13.476562 15.816406 L 13.496094 15.832031 L 13.476562 15.851562 L 13.484375 15.871094 C 13.570312 16.132812 13.492188 16.414062 13.449219 16.679688 C 13.445312 16.726562 13.414062 16.769531 13.398438 16.8125 C 13.375 16.894531 13.378906 16.992188 13.332031 17.0625 L 13.316406 17.0625 C 13.296875 17.023438 13.296875 17.011719 13.292969 16.964844 C 13.394531 16.421875 13.515625 15.632812 13.386719 15.09375 C 13.242188 14.484375 12.894531 14.050781 12.457031 13.632812 C 12.3125 13.492188 12.183594 13.339844 12.007812 13.230469 C 11.226562 13.183594 10.34375 13.25 9.5625 13.21875 Z M 9.5625 13.21875 "/>
<path style=" stroke:none;fill-rule:nonzero;fill:rgb(8.627451%,34.117648%,19.215687%);fill-opacity:1;" d="M 4.382812 10.304688 C 4.558594 10.289062 4.8125 10.292969 5.003906 10.289062 L 5.96875 10.261719 C 6.027344 10.265625 6.074219 10.257812 6.117188 10.292969 L 6.113281 10.3125 C 5.992188 10.375 5.65625 10.390625 5.527344 10.34375 C 5.40625 10.296875 5.289062 10.316406 5.160156 10.332031 C 5.183594 10.332031 5.332031 10.332031 5.34375 10.335938 C 5.171875 10.347656 4.953125 10.359375 4.78125 10.359375 L 4.800781 10.332031 L 4.777344 10.355469 L 4.804688 10.34375 C 4.773438 10.3125 4.539062 10.328125 4.496094 10.347656 L 4.515625 10.367188 C 4.476562 10.523438 4.402344 10.457031 4.449219 10.71875 L 4.460938 10.71875 C 4.457031 10.65625 4.449219 10.585938 4.46875 10.527344 L 4.496094 10.511719 L 4.507812 10.519531 C 4.5 10.53125 4.488281 10.539062 4.480469 10.554688 C 4.449219 10.617188 4.492188 11.363281 4.453125 11.414062 C 4.433594 11.34375 4.484375 11.273438 4.453125 11.167969 L 4.445312 11.171875 C 4.414062 11.347656 4.457031 11.488281 4.457031 11.652344 C 4.460938 11.6875 4.417969 11.734375 4.421875 11.882812 C 4.398438 11.894531 4.394531 11.894531 4.367188 11.898438 C 4.367188 11.394531 4.355469 10.804688 4.382812 10.304688 Z M 4.382812 10.304688 "/>
<path style=" stroke:none;fill-rule:nonzero;fill:rgb(8.627451%,34.117648%,19.215687%);fill-opacity:1;" d="M 4.707031 19.964844 C 4.90625 19.898438 5.101562 19.8125 5.300781 19.746094 C 5.527344 19.671875 5.765625 19.609375 5.996094 19.546875 L 6 19.59375 C 5.898438 19.707031 5.78125 19.640625 5.613281 19.734375 C 5.488281 19.804688 5.378906 19.730469 5.179688 19.894531 L 5.183594 19.90625 C 5.460938 19.859375 5.597656 19.863281 5.878906 19.859375 C 5.886719 19.832031 5.882812 19.847656 5.882812 19.820312 C 5.949219 19.808594 5.929688 19.804688 5.996094 19.839844 C 6.082031 19.765625 6.058594 19.785156 6.167969 19.75 L 6.164062 19.734375 C 6.125 19.742188 6.070312 19.753906 6.035156 19.734375 L 6.03125 19.710938 L 6.042969 19.691406 L 6.054688 19.699219 C 6.09375 19.714844 6.105469 19.722656 6.144531 19.714844 C 6.175781 19.738281 6.203125 19.761719 6.230469 19.789062 C 6.253906 19.777344 6.261719 19.773438 6.285156 19.761719 C 6.378906 19.796875 6.292969 19.816406 6.410156 19.828125 C 6.566406 19.84375 6.75 19.816406 6.902344 19.835938 C 6.777344 19.863281 6.429688 19.871094 6.289062 19.886719 C 5.75 19.933594 5.25 19.980469 4.707031 19.964844 Z M 4.707031 19.964844 "/>
<path style=" stroke:none;fill-rule:nonzero;fill:rgb(16.862746%,47.058824%,29.411766%);fill-opacity:1;" d="M 22.980469 19.585938 C 23.132812 19.628906 23.96875 19.859375 24.03125 19.964844 C 23.9375 20.058594 23.167969 19.90625 22.996094 19.910156 C 22.960938 19.910156 22.75 19.890625 22.707031 19.878906 C 22.773438 19.871094 22.84375 19.878906 22.910156 19.875 C 23 19.867188 22.988281 19.84375 23.085938 19.84375 C 23.097656 19.796875 23.035156 19.8125 23.03125 19.734375 C 23.066406 19.707031 23.074219 19.714844 23.125 19.707031 C 23.042969 19.683594 23.03125 19.675781 22.988281 19.601562 Z M 22.980469 19.585938 "/>
<path style=" stroke:none;fill-rule:nonzero;fill:rgb(8.627451%,34.117648%,19.215687%);fill-opacity:1;" d="M 18.964844 16.898438 C 18.96875 16.988281 18.964844 17.019531 18.957031 17.109375 C 18.984375 17.132812 18.996094 17.140625 19.019531 17.167969 C 19 17.210938 18.980469 17.210938 18.933594 17.238281 C 18.941406 17.277344 18.953125 17.285156 18.984375 17.316406 C 19.039062 17.285156 19.007812 17.109375 19.140625 17.089844 C 19.128906 17.109375 19.117188 17.132812 19.101562 17.152344 L 19.125 17.117188 C 19.105469 17.136719 19.109375 17.128906 19.097656 17.152344 L 19.128906 17.164062 L 19.128906 17.1875 L 19.089844 17.195312 C 19.054688 17.285156 19.050781 17.324219 19.035156 17.417969 L 19.050781 17.417969 C 19.078125 17.300781 19.171875 17.199219 19.28125 17.164062 C 19.203125 17.289062 19.039062 17.699219 18.90625 17.722656 C 18.675781 17.761719 18.824219 17.488281 18.847656 17.394531 C 18.804688 17.320312 18.691406 17.320312 18.71875 17.222656 C 18.769531 17.167969 18.796875 17.152344 18.859375 17.117188 C 18.910156 17.046875 18.933594 16.980469 18.964844 16.898438 Z M 18.964844 16.898438 "/>
<path style=" stroke:none;fill-rule:nonzero;fill:rgb(8.627451%,34.117648%,19.215687%);fill-opacity:1;" d="M 10.222656 4.347656 L 10.230469 4.347656 C 10.28125 4.355469 10.328125 4.355469 10.375 4.371094 C 10.25 4.425781 10.378906 4.511719 10.296875 4.632812 L 10.28125 4.632812 C 10.269531 4.605469 10.265625 4.59375 10.261719 4.5625 C 10.257812 4.582031 10.25 4.617188 10.246094 4.636719 C 10.214844 4.726562 10.332031 4.828125 10.242188 4.875 C 10.25 5.574219 10.234375 6.277344 10.269531 6.972656 C 10.273438 7.09375 10.269531 7.210938 10.25 7.328125 L 10.238281 7.332031 C 10.207031 7.273438 10.210938 7.25 10.207031 7.183594 C 10.191406 7.027344 10.210938 6.476562 10.210938 6.292969 C 10.207031 5.644531 10.210938 4.996094 10.222656 4.347656 Z M 10.222656 4.347656 "/>
<path style=" stroke:none;fill-rule:nonzero;fill:rgb(8.627451%,34.117648%,19.215687%);fill-opacity:1;" d="M 4.644531 13.058594 C 4.6875 13.042969 4.667969 13.042969 4.707031 13.046875 C 5.167969 13.082031 5.609375 13.058594 6.070312 13.128906 C 6.230469 13.152344 6.445312 13.136719 6.617188 13.15625 L 6.613281 13.164062 C 6.539062 13.167969 6.222656 13.152344 6.195312 13.164062 C 6.324219 13.195312 6.46875 13.171875 6.601562 13.1875 C 6.699219 13.195312 6.691406 13.171875 6.769531 13.246094 C 6.503906 13.246094 6.054688 13.257812 5.800781 13.230469 C 5.757812 13.199219 5.707031 13.152344 5.667969 13.117188 C 5.414062 13.082031 4.808594 13.136719 4.644531 13.058594 Z M 4.644531 13.058594 "/>
<path style=" stroke:none;fill-rule:nonzero;fill:rgb(96.078432%,98.431373%,96.470588%);fill-opacity:1;" d="M 10.222656 4.347656 L 10.226562 4.3125 C 10.277344 4.277344 11.757812 4.289062 11.902344 4.277344 C 12.070312 4.261719 12.929688 4.34375 13.039062 4.292969 C 13.050781 4.265625 13.058594 4.253906 13.074219 4.234375 L 13.085938 4.214844 C 13.082031 4.269531 13.089844 4.277344 13.066406 4.316406 C 12.953125 4.34375 12.484375 4.335938 12.347656 4.335938 L 10.765625 4.332031 C 10.660156 4.332031 10.304688 4.324219 10.230469 4.347656 Z M 10.222656 4.347656 "/>
<path style=" stroke:none;fill-rule:nonzero;fill:rgb(8.627451%,34.117648%,19.215687%);fill-opacity:1;" d="M 15.621094 3.25 L 15.601562 3.410156 L 15.578125 3.398438 C 15.574219 3.371094 15.566406 3.355469 15.554688 3.332031 L 15.539062 3.328125 L 15.53125 3.382812 C 15.46875 3.359375 15.433594 3.335938 15.367188 3.320312 C 15.28125 3.300781 15.207031 3.355469 15.152344 3.355469 C 15.054688 3.355469 14.929688 3.34375 14.832031 3.335938 C 14.691406 3.328125 14.34375 3.332031 14.207031 3.304688 L 14.382812 3.289062 C 14.324219 3.269531 14.085938 3.285156 14.023438 3.289062 C 13.902344 3.292969 13.667969 3.273438 13.53125 3.269531 C 13.710938 3.25 13.957031 3.257812 14.144531 3.257812 L 15.101562 3.257812 C 15.242188 3.257812 15.488281 3.265625 15.621094 3.25 Z M 15.621094 3.25 "/>
<path style=" stroke:none;fill-rule:nonzero;fill:rgb(8.627451%,34.117648%,19.215687%);fill-opacity:1;" d="M 18.867188 6.367188 C 19.507812 6.375 20.152344 6.378906 20.792969 6.378906 C 20.789062 6.414062 20.789062 6.464844 20.765625 6.484375 C 20.726562 6.46875 20.644531 6.449219 20.628906 6.421875 L 20.691406 6.417969 C 20.648438 6.402344 20.394531 6.40625 20.347656 6.421875 C 20.371094 6.433594 20.367188 6.429688 20.386719 6.445312 C 20.277344 6.488281 19.042969 6.425781 18.875 6.386719 Z M 18.867188 6.367188 "/>
<path style=" stroke:none;fill-rule:nonzero;fill:rgb(8.627451%,34.117648%,19.215687%);fill-opacity:1;" d="M 23.511719 9.597656 C 23.652344 9.589844 25.039062 9.597656 25.078125 9.613281 L 25.054688 9.800781 L 25.046875 9.800781 L 25.046875 9.769531 C 24.996094 9.75 25.019531 9.722656 24.964844 9.707031 C 24.726562 9.628906 23.519531 9.703125 23.382812 9.613281 Z M 23.511719 9.597656 "/>
<path style=" stroke:none;fill-rule:nonzero;fill:rgb(8.627451%,34.117648%,19.215687%);fill-opacity:1;" d="M 3.296875 12.390625 C 3.292969 12.257812 3.265625 11.351562 3.320312 11.308594 L 3.367188 11.328125 C 3.378906 11.363281 3.382812 11.371094 3.410156 11.398438 C 3.398438 11.460938 3.351562 11.464844 3.351562 11.496094 C 3.351562 11.695312 3.351562 12.019531 3.414062 12.207031 C 3.421875 12.234375 3.503906 12.300781 3.523438 12.320312 C 3.578125 12.324219 3.707031 12.324219 3.734375 12.347656 L 3.730469 12.367188 C 3.679688 12.371094 3.636719 12.371094 3.589844 12.390625 C 3.515625 12.394531 3.375 12.390625 3.296875 12.390625 Z M 3.296875 12.390625 "/>
<path style=" stroke:none;fill-rule:nonzero;fill:rgb(16.862746%,47.058824%,29.411766%);fill-opacity:1;" d="M 18.3125 17.699219 L 18.285156 17.671875 C 18.277344 17.601562 18.210938 17.496094 18.175781 17.410156 C 18.183594 17.402344 18.21875 17.347656 18.21875 17.34375 C 18.183594 17.292969 18.050781 17.179688 18.035156 17.125 C 18.019531 17.039062 18.085938 16.976562 18.066406 16.886719 C 18.046875 16.769531 18.074219 16.636719 18.222656 16.664062 C 18.15625 16.71875 18.148438 16.730469 18.101562 16.800781 C 18.125 16.890625 18.136719 16.976562 18.183594 17.054688 C 18.234375 17.144531 18.417969 17.203125 18.382812 17.292969 L 18.308594 17.34375 C 18.269531 17.367188 18.265625 17.367188 18.25 17.40625 C 18.253906 17.550781 18.359375 17.550781 18.3125 17.699219 Z M 18.3125 17.699219 "/>
<path style=" stroke:none;fill-rule:nonzero;fill:rgb(8.627451%,34.117648%,19.215687%);fill-opacity:1;" d="M 22.722656 13.878906 C 22.894531 13.875 22.917969 13.898438 23.070312 13.816406 L 23.082031 13.851562 C 22.863281 14.015625 22.304688 13.917969 22.035156 13.945312 C 21.996094 13.949219 21.828125 13.945312 21.785156 13.941406 C 21.671875 13.925781 21.480469 13.933594 21.351562 13.929688 C 21.421875 13.882812 21.964844 13.792969 22.035156 13.847656 C 22.097656 13.914062 22.613281 13.910156 22.722656 13.878906 Z M 22.722656 13.878906 "/>
<path style=" stroke:none;fill-rule:nonzero;fill:rgb(8.627451%,34.117648%,19.215687%);fill-opacity:1;" d="M 9.382812 19.722656 C 9.339844 19.714844 9.289062 19.714844 9.246094 19.714844 C 9.296875 19.675781 9.625 19.695312 9.789062 19.644531 C 9.78125 19.609375 9.777344 19.625 9.792969 19.597656 C 9.878906 19.632812 9.78125 19.65625 9.933594 19.636719 C 10.085938 19.617188 10.4375 19.5625 10.582031 19.589844 C 10.683594 19.6875 10.667969 19.605469 10.734375 19.632812 L 10.71875 19.6875 L 9.820312 19.714844 C 9.71875 19.714844 9.464844 19.730469 9.382812 19.722656 Z M 9.382812 19.722656 "/>
<path style=" stroke:none;fill-rule:nonzero;fill:rgb(8.627451%,34.117648%,19.215687%);fill-opacity:1;" d="M 6.261719 8.601562 C 6.320312 8.601562 6.375 8.601562 6.4375 8.601562 C 6.492188 8.605469 6.558594 8.613281 6.613281 8.613281 C 6.585938 8.585938 6.371094 8.617188 6.382812 8.707031 C 6.375 8.757812 6.304688 8.792969 6.28125 8.828125 C 6.28125 8.824219 6.300781 8.953125 6.300781 8.960938 C 6.308594 9.0625 6.308594 9.160156 6.3125 9.261719 C 6.3125 9.3125 6.324219 9.40625 6.308594 9.449219 C 6.300781 9.417969 6.285156 9.316406 6.28125 9.304688 C 6.265625 9.4375 6.304688 9.597656 6.261719 9.699219 C 6.273438 9.78125 6.265625 9.921875 6.269531 9.933594 L 6.28125 9.921875 L 6.289062 9.652344 L 6.300781 9.640625 C 6.324219 9.726562 6.304688 10.042969 6.277344 10.136719 L 6.257812 10.152344 C 6.238281 10.117188 6.25 9.875 6.242188 9.796875 C 6.234375 9.710938 6.242188 9.480469 6.246094 9.386719 Z M 6.261719 8.601562 "/>
<path style=" stroke:none;fill-rule:nonzero;fill:rgb(8.627451%,34.117648%,19.215687%);fill-opacity:1;" d="M 22.472656 14.804688 L 22.6875 14.804688 C 22.695312 14.941406 22.726562 15.742188 22.6875 15.816406 C 22.621094 15.808594 22.566406 15.820312 22.496094 15.808594 C 22.527344 15.789062 22.570312 15.796875 22.613281 15.796875 C 22.675781 15.730469 22.640625 15.144531 22.617188 15.03125 C 22.621094 15.050781 22.558594 15.003906 22.558594 15.003906 L 22.582031 14.914062 C 22.542969 14.863281 22.539062 14.851562 22.484375 14.835938 Z M 22.472656 14.804688 "/>
<path style=" stroke:none;fill-rule:nonzero;fill:rgb(8.627451%,34.117648%,19.215687%);fill-opacity:1;" d="M 17.527344 13.386719 C 17.609375 13.464844 17.675781 13.507812 17.789062 13.480469 C 17.6875 13.613281 17.625 13.484375 17.628906 13.671875 C 17.632812 13.871094 17.617188 13.808594 17.542969 13.863281 C 17.503906 13.890625 17.558594 14.019531 17.460938 14.101562 C 17.484375 13.9375 17.507812 13.789062 17.523438 13.625 C 17.3125 13.605469 17.105469 13.609375 16.894531 13.59375 C 17.050781 13.574219 17.21875 13.550781 17.371094 13.585938 C 17.421875 13.59375 17.472656 13.558594 17.511719 13.527344 L 17.523438 13.515625 L 17.539062 13.519531 L 17.527344 13.550781 L 17.558594 13.566406 C 17.605469 13.558594 17.589844 13.570312 17.613281 13.542969 C 17.585938 13.515625 17.570312 13.503906 17.539062 13.480469 C 17.523438 13.484375 17.507812 13.492188 17.492188 13.5 C 17.519531 13.449219 17.523438 13.445312 17.527344 13.386719 Z M 17.527344 13.386719 "/>
<path style=" stroke:none;fill-rule:nonzero;fill:rgb(69.01961%,77.64706%,25.098041%);fill-opacity:1;" d="M 7.582031 13.21875 C 7.894531 13.21875 8.210938 13.222656 8.523438 13.226562 C 8.609375 13.230469 8.753906 13.226562 8.828125 13.230469 C 8.730469 13.242188 8.628906 13.234375 8.550781 13.28125 C 8.523438 13.308594 8.519531 13.3125 8.480469 13.324219 C 8.386719 13.246094 8.207031 13.324219 8.085938 13.320312 C 7.941406 13.316406 7.808594 13.296875 7.667969 13.28125 L 7.65625 13.253906 L 7.660156 13.257812 L 7.65625 13.238281 Z M 7.582031 13.21875 "/>
<path style=" stroke:none;fill-rule:nonzero;fill:rgb(8.627451%,34.117648%,19.215687%);fill-opacity:1;" d="M 11.347656 19.667969 L 11.328125 19.664062 C 11.195312 19.636719 10.847656 19.660156 10.777344 19.636719 C 10.890625 19.609375 10.871094 19.648438 10.972656 19.578125 C 11.046875 19.582031 11.136719 19.589844 11.207031 19.589844 L 11.199219 19.585938 C 11.246094 19.59375 11.296875 19.609375 11.335938 19.59375 L 11.328125 19.566406 C 11.425781 19.570312 11.558594 19.628906 11.664062 19.609375 L 11.683594 19.578125 C 11.703125 19.578125 11.699219 19.574219 11.710938 19.589844 C 11.777344 19.671875 11.878906 19.605469 11.949219 19.628906 L 11.953125 19.640625 C 11.921875 19.65625 11.902344 19.648438 11.871094 19.660156 C 11.699219 19.664062 11.523438 19.664062 11.347656 19.667969 Z M 11.347656 19.667969 "/>
<path style=" stroke:none;fill-rule:nonzero;fill:rgb(8.627451%,34.117648%,19.215687%);fill-opacity:1;" d="M 8.316406 7.445312 L 8.324219 7.445312 C 8.535156 7.488281 9.265625 7.402344 9.441406 7.476562 L 9.4375 7.492188 C 9.34375 7.515625 9.386719 7.429688 9.226562 7.519531 C 9.21875 7.515625 9.207031 7.511719 9.199219 7.507812 C 9.085938 7.457031 8.9375 7.464844 8.816406 7.492188 C 8.78125 7.5 8.800781 7.507812 8.742188 7.507812 L 8.738281 7.492188 L 8.742188 7.472656 C 8.707031 7.476562 8.671875 7.484375 8.65625 7.515625 C 8.703125 7.523438 8.867188 7.535156 8.894531 7.542969 C 8.847656 7.566406 8.460938 7.554688 8.414062 7.515625 L 8.460938 7.503906 C 8.394531 7.496094 8.335938 7.488281 8.269531 7.46875 Z M 8.316406 7.445312 "/>
<path style=" stroke:none;fill-rule:nonzero;fill:rgb(8.627451%,34.117648%,19.215687%);fill-opacity:1;" d="M 23.390625 12.261719 L 23.386719 12.246094 L 23.40625 12.234375 C 23.597656 12.210938 24.9375 12.195312 25.082031 12.238281 C 24.972656 12.277344 24.355469 12.25 24.210938 12.25 C 23.9375 12.25 23.671875 12.246094 23.390625 12.261719 Z M 23.390625 12.261719 "/>
<path style=" stroke:none;fill-rule:nonzero;fill:rgb(69.01961%,77.64706%,25.098041%);fill-opacity:1;" d="M 17.527344 13.386719 L 17.503906 13.328125 L 17.515625 13.308594 C 17.65625 13.308594 17.832031 13.316406 17.96875 13.296875 L 17.789062 13.480469 C 17.675781 13.507812 17.609375 13.464844 17.527344 13.386719 Z M 17.527344 13.386719 "/>
<path style=" stroke:none;fill-rule:nonzero;fill:rgb(8.627451%,34.117648%,19.215687%);fill-opacity:1;" d="M 21.105469 15.113281 C 21.113281 15.066406 21.109375 15.042969 21.132812 15.007812 C 21.160156 15.054688 21.183594 15.660156 21.195312 15.761719 C 21.203125 15.769531 21.210938 15.777344 21.222656 15.785156 C 21.273438 15.792969 21.289062 15.789062 21.328125 15.828125 C 21.261719 15.828125 21.191406 15.824219 21.125 15.824219 C 21.113281 15.59375 21.113281 15.34375 21.105469 15.113281 Z M 21.105469 15.113281 "/>
<path style=" stroke:none;fill-rule:nonzero;fill:rgb(8.627451%,34.117648%,19.215687%);fill-opacity:1;" d="M 21.222656 14.785156 C 21.179688 14.851562 21.261719 15.246094 21.191406 15.316406 C 21.160156 15.234375 21.164062 14.078125 21.1875 13.964844 C 21.214844 14.226562 21.199219 14.519531 21.222656 14.785156 Z M 21.222656 14.785156 "/>
<path style=" stroke:none;fill-rule:nonzero;fill:rgb(8.627451%,34.117648%,19.215687%);fill-opacity:1;" d="M 22.035156 13.847656 C 22.105469 13.804688 22.628906 13.824219 22.710938 13.855469 L 22.722656 13.878906 C 22.613281 13.910156 22.097656 13.914062 22.035156 13.847656 Z M 22.035156 13.847656 "/>
<path style=" stroke:none;fill-rule:nonzero;fill:rgb(8.627451%,34.117648%,19.215687%);fill-opacity:1;" d="M 18.402344 5.996094 C 18.472656 5.996094 18.773438 5.980469 18.8125 6.015625 L 18.820312 6.039062 C 18.796875 6.074219 18.792969 6.117188 18.785156 6.15625 C 18.773438 6.164062 18.625 6.09375 18.589844 6.082031 C 18.625 6.074219 18.648438 6.078125 18.683594 6.074219 L 18.675781 6.054688 C 18.617188 6.015625 18.511719 6.046875 18.402344 5.996094 Z M 18.402344 5.996094 "/>
<path style=" stroke:none;fill-rule:nonzero;fill:rgb(97.254902%,99.607843%,78.823531%);fill-opacity:1;" d="M 18.832031 6.914062 C 18.832031 6.863281 18.828125 6.800781 18.851562 6.761719 C 18.933594 6.742188 19.25 6.75 19.355469 6.75 L 20.386719 6.753906 L 20.386719 7.035156 C 20.386719 7.78125 20.402344 8.554688 20.394531 9.300781 L 21.71875 9.3125 C 21.976562 9.3125 22.292969 9.304688 22.546875 9.320312 L 22.5625 9.96875 C 23.019531 9.972656 23.480469 9.976562 23.9375 9.976562 C 24.140625 9.976562 24.464844 9.964844 24.65625 9.988281 C 24.65625 10.101562 24.664062 10.605469 24.652344 10.679688 C 24.664062 11.054688 24.65625 11.445312 24.664062 11.824219 C 24.402344 11.832031 24.109375 11.820312 23.863281 11.832031 L 23.753906 11.832031 C 23.363281 11.828125 22.972656 11.828125 22.582031 11.828125 C 22.578125 12.304688 22.582031 12.792969 22.574219 13.269531 C 22.136719 13.253906 21.589844 13.191406 21.183594 13.199219 L 21.171875 13.230469 C 21.082031 13.257812 20.566406 13.238281 20.460938 13.222656 L 20.476562 13.222656 C 20.335938 13.195312 20.222656 13.210938 20.058594 13.175781 C 20.199219 13.175781 20.433594 13.183594 20.5625 13.167969 C 20.335938 13.136719 19.875 13.144531 19.632812 13.144531 C 19.511719 12.953125 19.355469 12.910156 19.179688 13.070312 L 19.175781 13.191406 L 19.136719 13.195312 C 19.125 13.246094 19.183594 13.207031 19.128906 13.25 C 18.984375 13.277344 18.488281 13.21875 18.300781 13.210938 C 18.15625 13.214844 18.039062 13.222656 17.902344 13.167969 C 17.84375 13.140625 17.71875 13.117188 17.664062 13.15625 C 17.660156 13.179688 17.65625 13.199219 17.648438 13.21875 L 17.617188 13.167969 C 17.628906 13.140625 17.710938 13.101562 17.75 13.074219 C 17.53125 13.019531 17.585938 13.136719 17.390625 13.179688 C 17.355469 13.183594 17.292969 13.164062 17.265625 13.136719 C 17.269531 13.085938 17.273438 13.097656 17.316406 13.050781 C 17.652344 12.84375 17.988281 12.558594 18.320312 12.335938 C 18.515625 12.203125 18.683594 12.035156 18.902344 11.929688 C 19.007812 11.875 19.136719 11.839844 19.253906 11.835938 C 20.167969 11.804688 21.09375 11.847656 22.003906 11.824219 C 22.019531 11.632812 22.011719 11.324219 22.011719 11.121094 C 22.015625 10.640625 22.015625 10.160156 22.015625 9.679688 C 21.996094 9.734375 22.003906 9.746094 21.964844 9.773438 L 21.945312 9.765625 C 21.953125 9.738281 21.953125 9.742188 21.960938 9.714844 C 21.800781 9.691406 21.339844 9.710938 21.148438 9.710938 L 21.152344 9.726562 L 21.195312 9.742188 C 21.058594 9.785156 20.773438 9.71875 20.632812 9.714844 C 20.363281 9.703125 20.09375 9.726562 19.820312 9.699219 C 19.722656 9.691406 19.578125 9.777344 19.527344 9.769531 C 19.109375 10.277344 19.144531 10.109375 19.148438 10.851562 C 19.464844 10.859375 19.785156 10.847656 20.101562 10.851562 C 20.101562 10.6875 20.109375 10.484375 20.105469 10.324219 C 20.105469 10.269531 20.097656 10.25 20.125 10.207031 C 20.207031 10.1875 20.515625 10.195312 20.621094 10.195312 C 20.953125 10.195312 21.28125 10.199219 21.613281 10.203125 C 21.613281 10.382812 21.621094 10.734375 21.609375 10.894531 C 21.613281 11 21.625 11.308594 21.613281 11.398438 C 21.578125 11.421875 21.570312 11.417969 21.527344 11.417969 C 21.035156 11.425781 20.488281 11.390625 20.015625 11.40625 C 19.816406 11.378906 19.441406 11.394531 19.234375 11.390625 C 18.878906 11.390625 18.488281 11.679688 18.164062 11.863281 C 17.480469 12.246094 16.738281 12.679688 16.128906 13.183594 C 15.679688 13.554688 15.289062 13.988281 14.90625 14.421875 C 14.929688 14.183594 14.988281 14.019531 15.046875 13.796875 C 15.222656 13.140625 15.429688 12.617188 15.785156 12.042969 C 15.9375 11.796875 16.066406 11.5625 16.261719 11.332031 C 16.441406 11.125 16.652344 10.957031 16.84375 10.765625 C 17.097656 10.488281 17.398438 10.246094 17.652344 9.976562 C 18.03125 9.582031 18.398438 9.226562 18.804688 8.859375 C 18.820312 8.699219 18.8125 8.375 18.816406 8.199219 Z M 18.832031 6.914062 "/>
<path style=" stroke:none;fill-rule:nonzero;fill:rgb(73.333335%,83.529413%,29.411766%);fill-opacity:1;" d="M 20.457031 10.371094 C 20.664062 10.363281 21.058594 10.355469 21.261719 10.371094 C 21.269531 10.625 21.273438 10.882812 21.269531 11.136719 C 21.207031 11.136719 21.109375 11.136719 21.054688 11.144531 C 20.855469 11.132812 20.660156 11.15625 20.449219 11.140625 C 20.476562 10.960938 20.445312 10.578125 20.457031 10.371094 Z M 20.457031 10.371094 "/>
<path style=" stroke:none;fill-rule:nonzero;fill:rgb(93.725491%,97.254902%,69.01961%);fill-opacity:1;" d="M 20.394531 9.300781 L 21.71875 9.3125 C 21.976562 9.3125 22.292969 9.304688 22.546875 9.320312 L 22.5625 9.96875 C 23.019531 9.972656 23.480469 9.976562 23.9375 9.976562 C 24.140625 9.976562 24.464844 9.964844 24.65625 9.988281 C 24.65625 10.101562 24.664062 10.605469 24.652344 10.679688 C 24.648438 10.671875 24.640625 10.664062 24.632812 10.65625 C 24.632812 10.507812 24.640625 10.191406 24.605469 10.050781 C 24.570312 10.046875 24.566406 10.042969 24.53125 10.046875 L 24.519531 10.085938 C 24.476562 10.09375 24.511719 10.058594 24.445312 10.023438 C 24.363281 10.039062 24.101562 10.035156 24 10.039062 L 23.992188 10.046875 C 24.011719 10.0625 24.417969 10.078125 24.464844 10.078125 L 24.515625 10.164062 C 24.445312 10.152344 24.445312 10.128906 24.34375 10.125 C 24.101562 10.105469 23.863281 10.109375 23.617188 10.109375 C 23.511719 10.109375 23.320312 10.132812 23.226562 10.078125 C 23.164062 10.039062 23.121094 10.132812 23.050781 10.121094 L 23.035156 10.101562 C 23.078125 10.085938 23.097656 10.058594 23.152344 10.039062 L 23.140625 10.03125 C 22.976562 10.019531 23.015625 10.050781 22.894531 10.066406 C 22.917969 10.097656 22.9375 10.089844 22.984375 10.101562 C 22.90625 10.136719 22.785156 10.0625 22.710938 10.050781 C 22.703125 10.050781 22.601562 10.058594 22.582031 10.058594 C 22.46875 9.945312 22.582031 9.628906 22.535156 9.5 C 22.5 9.488281 22.496094 9.492188 22.476562 9.460938 L 22.484375 9.410156 C 22.4375 9.40625 22.355469 9.414062 22.316406 9.441406 C 22.339844 9.476562 22.339844 9.460938 22.339844 9.496094 C 22.277344 9.488281 22.335938 9.425781 22.226562 9.433594 C 21.960938 9.449219 20.542969 9.464844 20.394531 9.351562 Z M 20.394531 9.300781 "/>
<path style=" stroke:none;fill-rule:nonzero;fill:rgb(93.725491%,97.254902%,69.01961%);fill-opacity:1;" d="M 18.902344 11.929688 C 19.007812 11.875 19.136719 11.839844 19.253906 11.835938 C 20.167969 11.804688 21.09375 11.847656 22.003906 11.824219 L 21.980469 11.855469 C 21.6875 11.882812 21.425781 11.9375 21.125 11.9375 C 20.738281 11.941406 20.304688 11.902344 19.925781 11.980469 C 19.675781 12.027344 19.527344 11.917969 19.28125 11.902344 C 19.160156 11.902344 19.03125 11.949219 18.902344 11.929688 Z M 18.902344 11.929688 "/>
<path style=" stroke:none;fill-rule:nonzero;fill:rgb(93.725491%,97.254902%,69.01961%);fill-opacity:1;" d="M 20.105469 10.324219 C 20.105469 10.269531 20.097656 10.25 20.125 10.207031 C 20.207031 10.1875 20.515625 10.195312 20.621094 10.195312 C 20.953125 10.195312 21.28125 10.199219 21.613281 10.203125 C 21.613281 10.382812 21.621094 10.734375 21.609375 10.894531 C 21.582031 10.796875 21.597656 10.402344 21.585938 10.261719 C 21.507812 10.257812 21.371094 10.242188 21.296875 10.261719 L 21.277344 10.289062 C 21.304688 10.363281 21.445312 10.289062 21.488281 10.324219 C 21.445312 10.371094 21.363281 10.355469 21.300781 10.351562 C 21.273438 10.484375 21.3125 10.964844 21.296875 11.152344 C 21.222656 11.152344 21.125 11.15625 21.054688 11.144531 C 21.109375 11.136719 21.207031 11.136719 21.269531 11.136719 C 21.273438 10.882812 21.269531 10.625 21.261719 10.371094 C 21.058594 10.355469 20.664062 10.363281 20.457031 10.371094 C 20.445312 10.578125 20.476562 10.960938 20.449219 11.140625 C 20.40625 10.984375 20.457031 10.449219 20.40625 10.289062 C 20.382812 10.273438 20.144531 10.253906 20.132812 10.257812 Z M 20.105469 10.324219 "/>
<path style=" stroke:none;fill-rule:nonzero;fill:rgb(93.725491%,97.254902%,69.01961%);fill-opacity:1;" d="M 18.832031 6.914062 C 18.832031 6.863281 18.828125 6.800781 18.851562 6.761719 C 18.933594 6.742188 19.25 6.75 19.355469 6.75 L 20.386719 6.753906 L 20.386719 7.035156 C 20.359375 6.945312 20.390625 6.894531 20.304688 6.832031 L 20.25 6.855469 L 20.242188 6.886719 C 20.085938 6.953125 19.683594 6.957031 19.507812 6.9375 C 19.515625 6.933594 19.507812 6.9375 19.53125 6.933594 L 19.550781 6.933594 C 19.332031 6.890625 19.109375 6.902344 18.898438 6.855469 C 18.847656 6.875 18.867188 6.867188 18.832031 6.914062 Z M 18.832031 6.914062 "/>
<path style=" stroke:none;fill-rule:nonzero;fill:rgb(16.862746%,47.058824%,29.411766%);fill-opacity:1;" d="M 17.578125 12.992188 C 17.691406 12.984375 17.757812 12.976562 17.871094 13.003906 C 17.902344 13.035156 17.9375 13.074219 17.96875 13.101562 C 18.207031 13.105469 18.917969 13.101562 19.117188 13.152344 L 19.179688 13.070312 L 19.175781 13.191406 L 19.136719 13.195312 C 19.125 13.246094 19.183594 13.207031 19.128906 13.25 C 18.984375 13.277344 18.488281 13.21875 18.300781 13.210938 C 18.15625 13.214844 18.039062 13.222656 17.902344 13.167969 C 17.84375 13.140625 17.71875 13.117188 17.664062 13.15625 C 17.660156 13.179688 17.65625 13.199219 17.648438 13.21875 L 17.617188 13.167969 C 17.628906 13.140625 17.710938 13.101562 17.75 13.074219 C 17.53125 13.019531 17.585938 13.136719 17.390625 13.179688 C 17.355469 13.183594 17.292969 13.164062 17.265625 13.136719 C 17.269531 13.085938 17.273438 13.097656 17.316406 13.050781 C 17.417969 13.128906 17.492188 13.0625 17.578125 12.992188 Z M 17.578125 12.992188 "/>
<path style=" stroke:none;fill-rule:nonzero;fill:rgb(8.627451%,34.117648%,19.215687%);fill-opacity:1;" d="M 19.117188 13.152344 L 19.179688 13.070312 L 19.175781 13.191406 L 19.136719 13.195312 C 19.125 13.246094 19.183594 13.207031 19.128906 13.25 C 18.984375 13.277344 18.488281 13.21875 18.300781 13.210938 C 18.359375 13.183594 18.984375 13.183594 19.117188 13.152344 Z M 19.117188 13.152344 "/>
<path style=" stroke:none;fill-rule:nonzero;fill:rgb(8.627451%,34.117648%,19.215687%);fill-opacity:1;" d="M 19.609375 9.667969 C 19.8125 9.652344 21.984375 9.660156 22.015625 9.679688 C 21.996094 9.734375 22.003906 9.746094 21.964844 9.773438 L 21.945312 9.765625 C 21.953125 9.738281 21.953125 9.742188 21.960938 9.714844 C 21.800781 9.691406 21.339844 9.710938 21.148438 9.710938 L 21.152344 9.726562 L 21.195312 9.742188 C 21.058594 9.785156 20.773438 9.71875 20.632812 9.714844 C 20.363281 9.703125 20.09375 9.726562 19.820312 9.699219 C 19.722656 9.691406 19.578125 9.777344 19.527344 9.769531 Z M 19.609375 9.667969 "/>
<path style=" stroke:none;fill-rule:nonzero;fill:rgb(8.627451%,34.117648%,19.215687%);fill-opacity:1;" d="M 20.5625 13.167969 C 20.722656 13.164062 21.023438 13.179688 21.183594 13.199219 L 21.171875 13.230469 C 21.082031 13.257812 20.566406 13.238281 20.460938 13.222656 L 20.476562 13.222656 C 20.335938 13.195312 20.222656 13.210938 20.058594 13.175781 C 20.199219 13.175781 20.433594 13.183594 20.5625 13.167969 Z M 20.5625 13.167969 "/>
<path style=" stroke:none;fill-rule:nonzero;fill:rgb(73.333335%,83.529413%,29.411766%);fill-opacity:1;" d="M 19.28125 8.21875 C 19.527344 8.214844 19.773438 8.214844 20.019531 8.21875 C 20.039062 8.46875 20.019531 8.90625 20.015625 9.167969 C 19.976562 9.167969 19.882812 9.167969 19.847656 9.167969 C 19.550781 9.183594 18.964844 9.789062 18.777344 10.019531 C 18.75 10.351562 18.785156 10.707031 18.765625 11.042969 C 18.269531 11.351562 17.808594 11.550781 17.285156 11.800781 C 16.980469 11.949219 16.671875 12.136719 16.375 12.300781 L 15.882812 12.585938 C 15.980469 12.34375 16.234375 11.828125 16.386719 11.628906 C 16.542969 11.421875 16.902344 11.109375 17.09375 10.925781 C 17.566406 10.472656 18.078125 10.0625 18.550781 9.609375 C 18.652344 9.507812 19.074219 9.175781 19.101562 9.066406 C 19.15625 8.84375 19.128906 8.46875 19.136719 8.222656 Z M 19.28125 8.21875 "/>
<path style=" stroke:none;fill-rule:nonzero;fill:rgb(73.333335%,83.529413%,29.411766%);fill-opacity:1;" d="M 19.261719 12.109375 C 20.21875 12.089844 21.246094 12.125 22.210938 12.128906 L 22.21875 12.882812 L 21.335938 12.875 C 21.25 12.878906 20.910156 12.863281 20.816406 12.859375 L 19.730469 12.804688 C 19.4375 12.792969 19.148438 12.78125 18.855469 12.773438 C 18.671875 12.769531 18.460938 12.769531 18.285156 12.746094 C 18.421875 12.605469 18.890625 12.21875 19.078125 12.125 C 19.109375 12.109375 19.21875 12.109375 19.261719 12.109375 Z M 19.261719 12.109375 "/>
<path style=" stroke:none;fill-rule:nonzero;fill:rgb(73.333335%,83.529413%,29.411766%);fill-opacity:1;" d="M 22.285156 10.28125 C 22.953125 10.300781 23.648438 10.261719 24.316406 10.285156 C 24.324219 10.652344 24.316406 11.039062 24.316406 11.40625 C 24.3125 11.414062 24.296875 11.433594 24.292969 11.433594 C 23.851562 11.429688 22.632812 11.441406 22.289062 11.433594 C 22.277344 11.082031 22.285156 10.636719 22.285156 10.28125 Z M 22.285156 10.28125 "/>
<path style=" stroke:none;fill-rule:nonzero;fill:rgb(73.333335%,83.529413%,29.411766%);fill-opacity:1;" d="M 19.148438 7.039062 C 19.4375 7.042969 19.734375 7.039062 20.023438 7.042969 L 20.023438 7.953125 C 19.730469 7.957031 19.433594 7.953125 19.140625 7.949219 C 19.144531 7.644531 19.144531 7.34375 19.148438 7.039062 Z M 19.148438 7.039062 "/>
<path style=" stroke:none;fill-rule:nonzero;fill:rgb(97.254902%,99.607843%,78.823531%);fill-opacity:1;" d="M 8.117188 7.832031 C 8.84375 7.820312 9.667969 7.8125 10.390625 7.828125 C 10.496094 7.925781 10.574219 8.035156 10.65625 8.152344 C 10.863281 8.378906 11.125 8.648438 11.351562 8.855469 C 11.503906 9.003906 11.707031 9.160156 11.871094 9.304688 L 12.929688 10.25 C 13.046875 10.355469 13.453125 10.6875 13.515625 10.773438 C 13.519531 10.878906 13.53125 11.105469 13.523438 11.203125 C 13.542969 11.382812 13.566406 13.542969 13.546875 13.582031 C 13.515625 13.574219 13.527344 13.582031 13.503906 13.558594 C 13.40625 13.488281 13.210938 13.300781 13.097656 13.210938 C 12.898438 13.214844 12.542969 12.824219 12.4375 12.65625 L 12.449219 12.609375 C 12.410156 12.5625 12.089844 12.269531 12.039062 12.222656 C 11.667969 11.890625 11.019531 11.234375 10.605469 11.007812 C 10.410156 11.21875 10.324219 11.371094 10.097656 11.585938 C 9.992188 11.59375 9.855469 11.59375 9.75 11.585938 C 9.070312 11.558594 8.347656 11.601562 7.667969 11.554688 C 7.65625 11.371094 7.667969 10.972656 7.667969 10.777344 C 7.667969 10.277344 7.667969 9.773438 7.671875 9.269531 C 7.445312 9.265625 7.207031 9.269531 6.980469 9.265625 L 6.976562 9.707031 C 6.972656 10.492188 6.976562 11.277344 6.984375 12.0625 C 7.402344 12.0625 7.820312 12.050781 8.238281 12.046875 C 8.738281 12.046875 9.238281 12.046875 9.738281 12.050781 C 10.035156 12.050781 10.386719 12.042969 10.683594 12.050781 C 10.742188 12.097656 11.292969 12.636719 11.339844 12.691406 C 11.355469 12.710938 11.398438 12.769531 11.417969 12.792969 C 11.234375 12.800781 11.03125 12.800781 10.847656 12.796875 C 9.550781 12.773438 8.214844 12.847656 6.917969 12.800781 C 6.90625 12.621094 6.910156 12.367188 6.90625 12.183594 C 6.648438 12.175781 4.902344 12.203125 4.785156 12.160156 C 4.769531 12.0625 4.773438 11.765625 4.773438 11.652344 C 4.773438 11.332031 4.773438 11.011719 4.777344 10.691406 C 5.28125 10.679688 5.792969 10.6875 6.296875 10.679688 C 6.421875 10.679688 6.550781 10.679688 6.675781 10.6875 C 6.664062 10.546875 6.675781 10.296875 6.675781 10.144531 L 6.6875 9.113281 L 6.6875 8.996094 C 7.027344 8.992188 7.398438 8.980469 7.738281 8.992188 C 7.832031 8.984375 8 8.984375 8.101562 8.980469 C 8.113281 8.683594 8.109375 8.363281 8.117188 8.0625 C 8.117188 7.988281 8.113281 7.902344 8.117188 7.832031 Z M 8.117188 7.832031 "/>
<path style=" stroke:none;fill-rule:nonzero;fill:rgb(73.333335%,83.529413%,29.411766%);fill-opacity:1;" d="M 9.816406 9.6875 C 9.84375 9.421875 9.785156 8.175781 9.847656 8.035156 C 9.898438 8.035156 9.925781 8.0625 9.96875 8.089844 C 10.066406 8.175781 10.328125 8.390625 10.425781 8.464844 C 10.425781 9.011719 10.421875 9.558594 10.414062 10.105469 C 10.261719 10.011719 9.886719 9.71875 9.816406 9.6875 Z M 9.816406 9.6875 "/>
<path style=" stroke:none;fill-rule:nonzero;fill:rgb(93.725491%,97.254902%,69.01961%);fill-opacity:1;" d="M 11.339844 12.691406 C 11.167969 12.652344 11.046875 12.46875 10.84375 12.378906 L 10.824219 12.371094 C 10.808594 12.335938 10.75 12.25 10.722656 12.234375 C 10.609375 12.167969 10.261719 12.214844 10.136719 12.226562 C 10.148438 12.210938 10.144531 12.21875 10.148438 12.203125 C 10.113281 12.195312 9.960938 12.207031 9.910156 12.207031 L 9.21875 12.234375 C 8.917969 12.246094 8.5625 12.21875 8.257812 12.222656 C 8 12.226562 7.511719 12.257812 7.273438 12.234375 C 7.347656 12.238281 7.394531 12.222656 7.46875 12.203125 L 7.433594 12.214844 L 7.429688 12.1875 C 7.324219 12.179688 7.015625 12.25 6.953125 12.148438 C 6.945312 12.015625 6.964844 9.722656 6.976562 9.707031 C 6.972656 10.492188 6.976562 11.277344 6.984375 12.0625 C 7.402344 12.0625 7.820312 12.050781 8.238281 12.046875 C 8.738281 12.046875 9.238281 12.046875 9.738281 12.050781 C 10.035156 12.050781 10.386719 12.042969 10.683594 12.050781 C 10.742188 12.097656 11.292969 12.636719 11.339844 12.691406 Z M 11.339844 12.691406 "/>
<path style=" stroke:none;fill-rule:nonzero;fill:rgb(93.725491%,97.254902%,69.01961%);fill-opacity:1;" d="M 8.117188 7.832031 C 8.84375 7.820312 9.667969 7.8125 10.390625 7.828125 C 10.496094 7.925781 10.574219 8.035156 10.65625 8.152344 C 10.519531 8.117188 10.34375 7.777344 10.191406 7.964844 L 10.203125 7.96875 C 10.257812 7.949219 10.328125 7.945312 10.375 7.980469 L 10.375 8.007812 C 10.25 7.972656 10.0625 7.972656 9.933594 7.980469 L 9.917969 8 C 9.929688 8.039062 9.945312 8.058594 9.96875 8.089844 C 9.925781 8.0625 9.898438 8.035156 9.847656 8.035156 C 9.785156 8.175781 9.84375 9.421875 9.816406 9.6875 C 9.746094 9.640625 9.769531 9.46875 9.769531 9.382812 C 9.765625 9.101562 9.769531 8.820312 9.773438 8.539062 C 9.777344 8.441406 9.816406 8.109375 9.769531 8.046875 C 9.671875 8.019531 9.390625 8.003906 9.277344 7.996094 L 9.292969 7.992188 C 9.078125 7.964844 8.847656 7.976562 8.628906 7.972656 C 8.574219 7.96875 8.441406 7.988281 8.398438 7.984375 C 8.308594 7.976562 8.285156 7.941406 8.167969 7.957031 C 8.121094 7.988281 8.132812 7.992188 8.117188 8.0625 C 8.117188 7.988281 8.113281 7.902344 8.117188 7.832031 Z M 8.117188 7.832031 "/>
<path style=" stroke:none;fill-rule:nonzero;fill:rgb(93.725491%,97.254902%,69.01961%);fill-opacity:1;" d="M 6.675781 10.6875 L 6.652344 10.722656 C 6.078125 10.789062 5.484375 10.777344 4.90625 10.804688 C 4.867188 10.808594 4.835938 10.816406 4.804688 10.839844 C 4.765625 10.972656 4.804688 11.9375 4.785156 12.160156 C 4.769531 12.0625 4.773438 11.765625 4.773438 11.652344 C 4.773438 11.332031 4.773438 11.011719 4.777344 10.691406 C 5.28125 10.679688 5.792969 10.6875 6.296875 10.679688 C 6.421875 10.679688 6.550781 10.679688 6.675781 10.6875 Z M 6.675781 10.6875 "/>
<path style=" stroke:none;fill-rule:nonzero;fill:rgb(93.725491%,97.254902%,69.01961%);fill-opacity:1;" d="M 13.523438 11.203125 C 13.542969 11.382812 13.566406 13.542969 13.546875 13.582031 C 13.515625 13.574219 13.527344 13.582031 13.503906 13.558594 C 13.519531 13.519531 13.519531 13.503906 13.511719 13.460938 C 13.441406 13.113281 13.484375 12.679688 13.46875 12.3125 C 13.460938 12.121094 13.421875 11.59375 13.433594 11.4375 C 13.4375 11.492188 13.441406 11.542969 13.441406 11.597656 L 13.453125 11.605469 C 13.488281 11.507812 13.519531 11.3125 13.523438 11.203125 Z M 13.523438 11.203125 "/>
<path style=" stroke:none;fill-rule:nonzero;fill:rgb(93.725491%,97.254902%,69.01961%);fill-opacity:1;" d="M 6.6875 8.996094 C 7.027344 8.992188 7.398438 8.980469 7.738281 8.992188 C 7.605469 9.023438 7.558594 9.070312 7.421875 9.046875 L 7.375 9.039062 L 7.363281 9.0625 L 7.375 9.074219 C 7.433594 9.078125 7.492188 9.082031 7.550781 9.082031 C 7.507812 9.101562 6.785156 9.109375 6.6875 9.113281 Z M 6.6875 8.996094 "/>
<path style=" stroke:none;fill-rule:nonzero;fill:rgb(8.627451%,34.117648%,19.215687%);fill-opacity:1;" d="M 12.449219 12.609375 C 12.636719 12.78125 12.921875 13.039062 13.097656 13.210938 C 12.898438 13.214844 12.542969 12.824219 12.4375 12.65625 Z M 12.449219 12.609375 "/>
<path style=" stroke:none;fill-rule:nonzero;fill:rgb(73.333335%,83.529413%,29.411766%);fill-opacity:1;" d="M 10.796875 9.101562 C 11.371094 9.539062 11.871094 9.960938 12.425781 10.421875 C 12.632812 10.59375 12.914062 10.835938 13.128906 10.976562 C 13.085938 11.050781 12.882812 11.65625 12.835938 11.789062 C 12.796875 11.894531 12.757812 12.003906 12.71875 12.117188 C 12.078125 11.5625 11.4375 11.042969 10.796875 10.484375 C 10.78125 10.085938 10.789062 9.503906 10.796875 9.101562 Z M 10.796875 9.101562 "/>
<path style=" stroke:none;fill-rule:nonzero;fill:rgb(73.333335%,83.529413%,29.411766%);fill-opacity:1;" d="M 8.910156 9.660156 C 9.25 9.617188 9.660156 10.089844 9.921875 10.289062 L 9.9375 10.296875 C 9.933594 10.539062 9.929688 10.785156 9.929688 11.027344 L 9.765625 11.023438 L 8.785156 11.023438 C 8.785156 10.75 8.785156 10.472656 8.78125 10.195312 C 8.78125 10.078125 8.769531 9.816406 8.792969 9.710938 C 8.824219 9.675781 8.863281 9.671875 8.910156 9.660156 Z M 8.910156 9.660156 "/>
<path style=" stroke:none;fill-rule:nonzero;fill:rgb(73.333335%,83.529413%,29.411766%);fill-opacity:1;" d="M 5.070312 11.003906 C 5.582031 11.007812 6.089844 11.007812 6.601562 11.007812 C 6.613281 11.21875 6.601562 11.515625 6.597656 11.730469 C 6.601562 11.757812 6.597656 11.757812 6.589844 11.789062 C 6.5 11.820312 5.25 11.800781 5.074219 11.796875 Z M 5.070312 11.003906 "/>
<path style=" stroke:none;fill-rule:nonzero;fill:rgb(73.333335%,83.529413%,29.411766%);fill-opacity:1;" d="M 8.417969 8.128906 C 8.769531 8.132812 9.128906 8.121094 9.476562 8.128906 C 9.480469 8.5 9.480469 8.867188 9.476562 9.238281 C 9.152344 9.21875 8.757812 9.226562 8.425781 9.222656 C 8.414062 8.878906 8.417969 8.476562 8.417969 8.128906 Z M 8.417969 8.128906 "/>
<path style=" stroke:none;fill-rule:nonzero;fill:rgb(73.333335%,83.529413%,29.411766%);fill-opacity:1;" d="M 7.953125 9.472656 C 8.097656 9.511719 8.390625 9.773438 8.515625 9.882812 C 8.511719 10.285156 8.539062 10.910156 8.496094 11.292969 C 8.394531 11.304688 8.070312 11.292969 7.953125 11.285156 Z M 7.953125 9.472656 "/>
<path style=" stroke:none;fill-rule:nonzero;fill:rgb(97.254902%,99.607843%,78.823531%);fill-opacity:1;" d="M 13.507812 3.652344 C 13.5625 3.625 15.011719 3.632812 15.195312 3.644531 L 15.203125 4.511719 C 15.207031 4.683594 15.214844 4.917969 15.195312 5.085938 C 14.949219 5.417969 14.652344 5.707031 14.382812 6.015625 C 14.132812 6.304688 13.8125 6.59375 13.613281 6.917969 C 13.945312 7.285156 14.320312 7.609375 14.660156 7.96875 C 14.722656 8.035156 14.78125 8.097656 14.847656 8.15625 C 14.679688 8.351562 14.5 8.570312 14.339844 8.773438 C 14.117188 9.054688 13.773438 9.414062 13.613281 9.730469 C 13.449219 9.558594 13.257812 9.429688 13.074219 9.277344 C 12.640625 8.914062 12.207031 8.554688 11.777344 8.1875 C 11.394531 7.855469 10.964844 7.527344 10.597656 7.175781 C 10.597656 6.753906 10.597656 6.328125 10.601562 5.902344 C 10.601562 5.738281 10.59375 5.410156 10.609375 5.257812 C 10.605469 5.101562 10.601562 4.871094 10.625 4.722656 C 10.898438 4.710938 11.226562 4.722656 11.503906 4.722656 L 13.488281 4.71875 C 13.503906 4.4375 13.472656 3.902344 13.507812 3.652344 Z M 13.507812 3.652344 "/>
<path style=" stroke:none;fill-rule:nonzero;fill:rgb(93.725491%,97.254902%,69.01961%);fill-opacity:1;" d="M 13.488281 4.71875 C 13.503906 4.4375 13.472656 3.902344 13.507812 3.652344 C 13.519531 3.792969 13.527344 4.722656 13.492188 4.8125 C 13.457031 4.828125 13.386719 4.816406 13.335938 4.824219 C 13.046875 4.863281 12.773438 4.882812 12.484375 4.863281 C 12.382812 4.859375 12.214844 4.953125 12.097656 4.929688 C 11.777344 4.914062 11.457031 4.933594 11.132812 4.925781 C 11.011719 4.921875 10.746094 4.84375 10.652344 4.925781 C 10.617188 5.039062 10.640625 5.167969 10.609375 5.257812 C 10.605469 5.101562 10.601562 4.871094 10.625 4.722656 C 10.898438 4.710938 11.226562 4.722656 11.503906 4.722656 Z M 13.488281 4.71875 "/>
<path style=" stroke:none;fill-rule:nonzero;fill:rgb(73.333335%,83.529413%,29.411766%);fill-opacity:1;" d="M 10.910156 5.039062 C 11.136719 5.027344 11.488281 5.023438 11.714844 5.039062 C 11.714844 5.285156 11.671875 6.300781 11.71875 6.46875 C 11.773438 6.667969 13.019531 7.777344 13.269531 8.027344 C 13.414062 8.171875 13.554688 8.328125 13.679688 8.488281 C 13.621094 8.558594 13.578125 8.605469 13.511719 8.671875 C 13.464844 8.722656 13.382812 8.792969 13.328125 8.84375 C 12.519531 8.207031 11.699219 7.554688 10.882812 6.929688 C 10.871094 6.703125 10.871094 5.15625 10.910156 5.039062 Z M 10.910156 5.039062 "/>
<path style=" stroke:none;fill-rule:nonzero;fill:rgb(73.333335%,83.529413%,29.411766%);fill-opacity:1;" d="M 12.207031 5.039062 C 12.625 5.046875 13.058594 5.035156 13.476562 5.039062 C 13.507812 5.296875 13.488281 5.988281 13.480469 6.261719 C 13.347656 6.386719 12.972656 6.71875 12.890625 6.851562 C 12.945312 6.90625 13 6.960938 13.058594 7.011719 C 13.410156 7.316406 13.75 7.636719 14.09375 7.953125 L 14.230469 8.082031 C 14.136719 8.191406 14.007812 8.308594 13.898438 8.402344 C 13.464844 7.988281 13.027344 7.539062 12.648438 7.074219 C 12.480469 6.863281 12.3125 6.664062 12.132812 6.464844 C 12.113281 6.320312 12.117188 5.960938 12.117188 5.796875 C 12.121094 5.582031 12.109375 5.269531 12.125 5.0625 C 12.152344 5.035156 12.160156 5.042969 12.207031 5.039062 Z M 12.207031 5.039062 "/>
<path style=" stroke:none;fill-rule:nonzero;fill:rgb(73.333335%,83.529413%,29.411766%);fill-opacity:1;" d="M 14.121094 3.96875 C 14.378906 3.964844 14.640625 3.960938 14.898438 3.964844 C 14.902344 4.171875 14.921875 4.757812 14.894531 4.929688 C 14.707031 5.175781 14.386719 5.488281 14.167969 5.722656 C 14.050781 5.859375 13.902344 6.003906 13.777344 6.132812 C 13.75 5.441406 13.78125 4.671875 13.777344 3.972656 C 13.890625 3.972656 14.007812 3.96875 14.121094 3.96875 Z M 14.121094 3.96875 "/>
<path style=" stroke:none;fill-rule:nonzero;fill:rgb(97.254902%,99.607843%,78.823531%);fill-opacity:1;" d="M 15.460938 4.796875 C 15.6875 4.769531 15.96875 4.777344 16.199219 4.777344 C 16.554688 4.777344 16.90625 4.777344 17.261719 4.785156 C 17.273438 5.3125 17.261719 5.859375 17.28125 6.382812 C 17.613281 6.390625 17.996094 6.378906 18.320312 6.402344 C 18.320312 6.457031 18.328125 6.597656 18.320312 6.644531 C 18.332031 6.996094 18.339844 7.347656 18.339844 7.699219 C 18.34375 7.890625 18.355469 8.167969 18.335938 8.347656 C 18.316406 8.371094 18.246094 8.449219 18.238281 8.46875 C 18.234375 8.472656 18.230469 8.523438 18.230469 8.523438 C 18.046875 8.691406 17.863281 8.828125 17.703125 9.023438 C 17.519531 9.246094 17.261719 9.429688 17.042969 9.613281 C 16.972656 9.675781 16.785156 9.867188 16.703125 9.878906 C 16.75 9.832031 16.792969 9.785156 16.835938 9.738281 C 16.785156 9.730469 16.375 10.125 16.324219 10.1875 C 16.324219 10.21875 16.328125 10.230469 16.308594 10.257812 C 16.21875 10.296875 16.265625 10.21875 16.164062 10.308594 C 16.007812 10.445312 15.875 10.59375 15.734375 10.746094 C 15.730469 10.773438 15.734375 10.773438 15.742188 10.800781 L 15.71875 10.828125 C 15.703125 10.796875 15.707031 10.8125 15.707031 10.773438 C 15.65625 10.824219 15.429688 11.101562 15.390625 11.183594 C 15.378906 11.210938 15.363281 11.222656 15.34375 11.242188 L 15.347656 11.257812 L 15.382812 11.269531 C 15.367188 11.328125 15.230469 11.375 15.183594 11.464844 C 15.132812 11.5625 15.035156 11.675781 14.972656 11.773438 C 14.917969 11.851562 14.976562 11.851562 14.9375 11.886719 L 14.921875 11.863281 C 14.84375 11.917969 14.617188 12.316406 14.5625 12.3125 L 14.546875 12.304688 C 14.46875 12.375 14.273438 12.6875 14.175781 12.800781 C 14.195312 12.585938 14.203125 12.304688 14.210938 12.082031 C 14.230469 11.65625 14.246094 11.226562 14.257812 10.796875 C 14.261719 10.511719 14.253906 10.191406 14.273438 9.910156 C 14.640625 9.449219 15.140625 8.816406 15.527344 8.398438 C 15.582031 8.324219 15.703125 8.1875 15.726562 8.113281 C 15.6875 8.019531 15.621094 7.9375 15.550781 7.863281 L 15.527344 7.867188 C 15.453125 7.773438 15.285156 7.683594 15.203125 7.597656 C 15.160156 7.558594 14.90625 7.285156 14.910156 7.25 C 14.945312 7.265625 14.953125 7.273438 14.976562 7.261719 L 14.953125 7.253906 C 14.945312 7.226562 14.945312 7.214844 14.945312 7.1875 C 14.921875 7.1875 14.90625 7.191406 14.886719 7.191406 C 14.816406 7.078125 14.753906 6.972656 14.671875 6.867188 L 14.667969 6.859375 L 14.675781 6.8125 C 14.664062 6.789062 14.617188 6.730469 14.601562 6.707031 C 14.726562 6.542969 14.9375 6.375 15.09375 6.230469 C 15.492188 5.871094 15.867188 5.585938 16.222656 5.179688 C 16.105469 5.191406 15.550781 5.210938 15.457031 5.167969 C 15.410156 5.082031 15.449219 4.898438 15.460938 4.796875 Z M 15.460938 4.796875 "/>
<path style=" stroke:none;fill-rule:nonzero;fill:rgb(73.333335%,83.529413%,29.411766%);fill-opacity:1;" d="M 16.902344 6.988281 C 16.929688 7.058594 16.847656 7.445312 16.835938 7.554688 C 16.773438 7.828125 16.691406 8.464844 16.59375 8.671875 C 16.519531 8.832031 16.132812 9.320312 16.007812 9.496094 C 15.625 10.023438 15.246094 10.558594 14.859375 11.082031 C 14.792969 11.167969 14.679688 11.304688 14.601562 11.371094 C 14.585938 11.132812 14.542969 10.128906 14.625 9.960938 C 14.714844 9.777344 14.898438 9.636719 15.007812 9.46875 C 15.164062 9.3125 15.628906 8.679688 15.753906 8.5 C 15.792969 8.449219 15.800781 8.441406 15.820312 8.378906 C 15.8125 8.328125 15.824219 8.347656 15.785156 8.316406 C 15.664062 8.300781 15.632812 8.335938 15.527344 8.398438 C 15.582031 8.324219 15.703125 8.1875 15.726562 8.113281 L 15.734375 8.140625 C 15.742188 8.140625 15.75 8.140625 15.757812 8.140625 C 16.058594 7.839844 16.617188 7.261719 16.902344 6.988281 Z M 16.902344 6.988281 "/>
<path style=" stroke:none;fill-rule:nonzero;fill:rgb(93.725491%,97.254902%,69.01961%);fill-opacity:1;" d="M 15.460938 4.796875 C 15.6875 4.769531 15.96875 4.777344 16.199219 4.777344 C 16.554688 4.777344 16.90625 4.777344 17.261719 4.785156 C 17.273438 5.3125 17.261719 5.859375 17.28125 6.382812 C 17.613281 6.390625 17.996094 6.378906 18.320312 6.402344 C 18.320312 6.457031 18.328125 6.597656 18.320312 6.644531 C 18.304688 6.628906 18.277344 6.5 18.265625 6.457031 C 17.984375 6.523438 17.683594 6.5 17.390625 6.476562 C 17.355469 6.476562 17.257812 6.449219 17.242188 6.417969 C 17.140625 6.1875 17.277344 5.011719 17.167969 4.859375 L 16.925781 4.839844 L 16.90625 4.851562 L 16.902344 4.839844 C 16.902344 4.878906 16.921875 4.835938 16.949219 4.882812 C 16.589844 4.890625 16.222656 4.875 15.863281 4.886719 C 15.539062 4.898438 15.507812 4.757812 15.457031 5.167969 C 15.410156 5.082031 15.449219 4.898438 15.460938 4.796875 Z M 15.460938 4.796875 "/>
<path style=" stroke:none;fill-rule:nonzero;fill:rgb(8.627451%,34.117648%,19.215687%);fill-opacity:1;" d="M 14.546875 12.304688 C 14.84375 11.84375 15.351562 11.101562 15.703125 10.707031 C 16.144531 10.210938 16.839844 9.675781 17.355469 9.238281 C 17.644531 8.988281 17.945312 8.710938 18.238281 8.46875 C 18.234375 8.472656 18.230469 8.523438 18.230469 8.523438 C 18.046875 8.691406 17.863281 8.828125 17.703125 9.023438 C 17.519531 9.246094 17.261719 9.429688 17.042969 9.613281 C 16.972656 9.675781 16.785156 9.867188 16.703125 9.878906 C 16.75 9.832031 16.792969 9.785156 16.835938 9.738281 C 16.785156 9.730469 16.375 10.125 16.324219 10.1875 C 16.324219 10.21875 16.328125 10.230469 16.308594 10.257812 C 16.21875 10.296875 16.265625 10.21875 16.164062 10.308594 C 16.007812 10.445312 15.875 10.59375 15.734375 10.746094 C 15.730469 10.773438 15.734375 10.773438 15.742188 10.800781 L 15.71875 10.828125 C 15.703125 10.796875 15.707031 10.8125 15.707031 10.773438 C 15.65625 10.824219 15.429688 11.101562 15.390625 11.183594 C 15.378906 11.210938 15.363281 11.222656 15.34375 11.242188 L 15.347656 11.257812 L 15.382812 11.269531 C 15.367188 11.328125 15.230469 11.375 15.183594 11.464844 C 15.132812 11.5625 15.035156 11.675781 14.972656 11.773438 C 14.917969 11.851562 14.976562 11.851562 14.9375 11.886719 L 14.921875 11.863281 C 14.84375 11.917969 14.617188 12.316406 14.5625 12.3125 Z M 14.546875 12.304688 "/>
<path style=" stroke:none;fill-rule:nonzero;fill:rgb(93.725491%,97.254902%,69.01961%);fill-opacity:1;" d="M 15.007812 9.46875 C 14.949219 9.472656 14.976562 9.496094 14.921875 9.5 C 14.996094 9.386719 15.101562 9.269531 15.1875 9.164062 C 15.195312 9.128906 15.199219 9.097656 15.203125 9.074219 C 15.175781 9.0625 15.171875 9.066406 15.140625 9.066406 L 15.15625 9.042969 C 15.1875 9.039062 15.1875 9.039062 15.21875 9.027344 C 15.234375 8.972656 15.238281 8.945312 15.277344 8.90625 C 15.433594 8.742188 15.539062 8.5625 15.691406 8.390625 C 15.726562 8.375 15.726562 8.375 15.765625 8.378906 C 15.757812 8.425781 15.757812 8.453125 15.753906 8.5 C 15.628906 8.679688 15.164062 9.3125 15.007812 9.46875 Z M 15.007812 9.46875 "/>
<path style=" stroke:none;fill-rule:nonzero;fill:rgb(8.627451%,34.117648%,19.215687%);fill-opacity:1;" d="M 14.675781 6.8125 C 14.753906 6.90625 15.550781 7.859375 15.550781 7.863281 L 15.527344 7.867188 C 15.453125 7.773438 15.285156 7.683594 15.203125 7.597656 C 15.160156 7.558594 14.90625 7.285156 14.910156 7.25 C 14.945312 7.265625 14.953125 7.273438 14.976562 7.261719 L 14.953125 7.253906 C 14.945312 7.226562 14.945312 7.214844 14.945312 7.1875 C 14.921875 7.1875 14.90625 7.191406 14.886719 7.191406 C 14.816406 7.078125 14.753906 6.972656 14.671875 6.867188 L 14.667969 6.859375 Z M 14.675781 6.8125 "/>
<path style=" stroke:none;fill-rule:nonzero;fill:rgb(73.333335%,83.529413%,29.411766%);fill-opacity:1;" d="M 17.039062 6.695312 C 17.28125 6.699219 17.699219 6.703125 17.933594 6.683594 C 17.964844 6.742188 17.960938 8.09375 17.957031 8.253906 C 17.746094 8.433594 17.484375 8.609375 17.269531 8.792969 C 17.234375 8.820312 17.105469 8.914062 17.085938 8.9375 C 17.054688 8.917969 17.027344 8.910156 16.992188 8.898438 C 16.90625 8.730469 17 6.964844 17.039062 6.695312 Z M 17.039062 6.695312 "/>
<path style=" stroke:none;fill-rule:nonzero;fill:rgb(73.333335%,83.529413%,29.411766%);fill-opacity:1;" d="M 16.957031 5.277344 C 16.984375 5.347656 16.980469 6.269531 16.980469 6.414062 C 16.632812 6.753906 16.214844 7.023438 15.839844 7.363281 C 15.769531 7.273438 15.695312 7.179688 15.621094 7.09375 C 15.527344 6.96875 15.421875 6.84375 15.339844 6.710938 C 15.523438 6.429688 16.03125 6.066406 16.285156 5.828125 C 16.449219 5.675781 16.773438 5.386719 16.957031 5.277344 Z M 16.957031 5.277344 "/>
<path style=" stroke:none;fill-rule:nonzero;fill:rgb(100%,100%,100%);fill-opacity:1;" d="M 17.949219 13.601562 C 18.347656 13.59375 18.8125 13.589844 19.207031 13.617188 C 19.238281 13.789062 19.296875 14.210938 19.238281 14.371094 C 19.160156 14.503906 19.109375 14.578125 18.960938 14.480469 L 18.960938 14.492188 C 18.984375 14.621094 19.011719 14.621094 18.988281 14.769531 L 18.953125 14.789062 C 18.949219 14.878906 18.957031 14.902344 18.921875 14.984375 C 18.730469 15.21875 18.996094 15.347656 18.585938 15.558594 L 18.574219 15.5625 C 18.425781 15.523438 18.363281 15.507812 18.28125 15.363281 C 18.273438 15.34375 18.265625 15.324219 18.253906 15.308594 C 18.226562 15.195312 18.191406 15.089844 18.105469 15.007812 C 18.09375 14.996094 18.066406 15.003906 18.039062 15.003906 C 17.820312 14.929688 17.886719 14.722656 18.003906 14.582031 C 18.007812 14.570312 18.015625 14.566406 18.023438 14.558594 C 17.964844 14.46875 17.910156 14.425781 17.847656 14.316406 C 17.828125 14.085938 17.839844 13.808594 17.949219 13.601562 Z M 17.949219 13.601562 "/>
<path style=" stroke:none;fill-rule:nonzero;fill:rgb(69.01961%,77.64706%,25.098041%);fill-opacity:1;" d="M 18.496094 14.328125 C 18.585938 14.320312 18.675781 14.316406 18.761719 14.347656 C 18.835938 14.378906 18.910156 14.414062 18.960938 14.480469 L 18.960938 14.492188 C 18.984375 14.621094 19.011719 14.621094 18.988281 14.769531 L 18.953125 14.789062 C 18.949219 14.878906 18.957031 14.902344 18.921875 14.984375 C 18.730469 15.21875 18.996094 15.347656 18.585938 15.558594 L 18.574219 15.5625 C 18.425781 15.523438 18.363281 15.507812 18.28125 15.363281 C 18.273438 15.34375 18.265625 15.324219 18.253906 15.308594 C 18.226562 15.195312 18.191406 15.089844 18.105469 15.007812 C 18.09375 14.996094 18.066406 15.003906 18.039062 15.003906 C 17.820312 14.929688 17.886719 14.722656 18.003906 14.582031 C 18.007812 14.570312 18.015625 14.566406 18.023438 14.558594 C 18.085938 14.535156 18.113281 14.5 18.160156 14.453125 C 18.257812 14.378906 18.371094 14.332031 18.496094 14.328125 Z M 18.496094 14.328125 "/>
<path style=" stroke:none;fill-rule:nonzero;fill:rgb(9.019608%,38.431373%,23.137255%);fill-opacity:1;" d="M 18.496094 14.328125 C 18.585938 14.320312 18.675781 14.316406 18.761719 14.347656 C 18.835938 14.378906 18.910156 14.414062 18.960938 14.480469 L 18.960938 14.492188 C 18.984375 14.621094 19.011719 14.621094 18.988281 14.769531 L 18.953125 14.789062 C 18.949219 14.789062 18.949219 14.785156 18.945312 14.78125 C 18.863281 14.609375 18.386719 14.585938 18.253906 14.679688 L 18.191406 14.703125 L 18.171875 14.691406 C 18.15625 14.628906 18.183594 14.566406 18.164062 14.472656 L 18.160156 14.453125 C 18.257812 14.378906 18.371094 14.332031 18.496094 14.328125 Z M 18.496094 14.328125 "/>
<path style=" stroke:none;fill-rule:nonzero;fill:rgb(16.862746%,47.058824%,29.411766%);fill-opacity:1;" d="M 18.023438 14.558594 C 18.085938 14.535156 18.113281 14.5 18.160156 14.453125 L 18.164062 14.472656 C 18.183594 14.566406 18.15625 14.628906 18.171875 14.691406 L 18.191406 14.703125 L 18.253906 14.679688 C 18.117188 14.835938 18.164062 14.890625 18.246094 15.066406 C 18.300781 15.175781 18.289062 15.195312 18.253906 15.308594 C 18.226562 15.195312 18.191406 15.089844 18.105469 15.007812 C 18.09375 14.996094 18.066406 15.003906 18.039062 15.003906 C 17.820312 14.929688 17.886719 14.722656 18.003906 14.582031 C 18.007812 14.570312 18.015625 14.566406 18.023438 14.558594 Z M 18.023438 14.558594 "/>
<path style=" stroke:none;fill-rule:nonzero;fill:rgb(69.01961%,77.64706%,25.098041%);fill-opacity:1;" d="M 18.003906 14.582031 C 18.066406 14.644531 18.0625 14.640625 18.066406 14.746094 C 18.070312 14.800781 18.058594 14.957031 18.039062 15.003906 C 17.820312 14.929688 17.886719 14.722656 18.003906 14.582031 Z M 18.003906 14.582031 "/>
<path style=" stroke:none;fill-rule:nonzero;fill:rgb(8.627451%,34.117648%,19.215687%);fill-opacity:1;" d="M 20.015625 11.40625 C 20.488281 11.390625 21.035156 11.425781 21.527344 11.417969 L 21.546875 11.457031 L 21.535156 11.476562 C 21.421875 11.460938 20.777344 11.433594 20.734375 11.472656 C 20.800781 11.484375 20.847656 11.46875 20.890625 11.5 L 20.867188 11.488281 C 20.894531 11.507812 20.886719 11.492188 20.894531 11.527344 C 20.96875 11.519531 20.964844 11.519531 21.035156 11.542969 L 21.039062 11.558594 C 20.992188 11.566406 20.777344 11.527344 20.714844 11.519531 L 20.714844 11.480469 C 20.683594 11.476562 20.695312 11.476562 20.664062 11.488281 C 20.675781 11.519531 20.675781 11.503906 20.664062 11.535156 C 20.363281 11.503906 20.085938 11.515625 19.785156 11.453125 C 19.816406 11.445312 19.984375 11.453125 20.039062 11.449219 C 19.878906 11.417969 19.515625 11.445312 19.300781 11.414062 C 19.515625 11.40625 19.792969 11.425781 20 11.40625 Z M 20.015625 11.40625 "/>
<path style=" stroke:none;fill-rule:nonzero;fill:rgb(16.862746%,47.058824%,29.411766%);fill-opacity:1;" d="M 18.960938 14.480469 C 19.109375 14.578125 19.160156 14.503906 19.238281 14.371094 L 19.238281 14.386719 C 19.257812 14.566406 19.332031 14.695312 19.242188 14.867188 C 19.199219 14.902344 19.175781 14.933594 19.121094 14.953125 L 19.097656 14.949219 C 19.089844 14.9375 19.078125 14.925781 19.078125 14.914062 L 19.058594 14.875 C 19.046875 14.933594 19.054688 14.910156 19.019531 14.957031 L 18.921875 14.984375 C 18.957031 14.902344 18.949219 14.878906 18.953125 14.789062 L 18.988281 14.769531 C 19.011719 14.621094 18.984375 14.621094 18.960938 14.492188 Z M 18.960938 14.480469 "/>
<path style=" stroke:none;fill-rule:nonzero;fill:rgb(69.01961%,77.64706%,25.098041%);fill-opacity:1;" d="M 19.039062 14.59375 C 19.179688 14.714844 19.238281 14.660156 19.242188 14.867188 C 19.199219 14.902344 19.175781 14.933594 19.121094 14.953125 L 19.097656 14.949219 C 19.089844 14.9375 19.078125 14.925781 19.078125 14.914062 Z M 19.039062 14.59375 "/>
<path style=" stroke:none;fill-rule:nonzero;fill:rgb(8.627451%,34.117648%,19.215687%);fill-opacity:1;" d="M 23.753906 11.832031 L 23.863281 11.832031 C 23.914062 11.859375 24.460938 11.835938 24.601562 11.859375 C 24.425781 11.976562 23.238281 11.886719 22.980469 11.851562 C 23.160156 11.84375 23.609375 11.871094 23.753906 11.832031 Z M 23.753906 11.832031 "/>
<path style=" stroke:none;fill-rule:nonzero;fill:rgb(73.333335%,83.529413%,29.411766%);fill-opacity:1;" d="M 19.519531 13.308594 L 19.546875 13.316406 C 19.550781 13.359375 19.519531 13.402344 19.496094 13.445312 C 19.417969 13.449219 19.339844 13.453125 19.261719 13.429688 C 19.226562 13.394531 19.230469 13.398438 19.207031 13.351562 C 19.238281 13.296875 19.417969 13.34375 19.519531 13.308594 Z M 19.519531 13.308594 "/>
<path style=" stroke:none;fill-rule:nonzero;fill:rgb(8.627451%,34.117648%,19.215687%);fill-opacity:1;" d="M 10.265625 5.023438 C 10.285156 5.046875 10.285156 5.058594 10.292969 5.09375 L 10.304688 5.101562 L 10.316406 5.023438 L 10.328125 5.027344 C 10.328125 5.082031 10.339844 5.445312 10.335938 5.476562 C 10.320312 5.484375 10.328125 5.480469 10.304688 5.484375 C 10.289062 5.507812 10.285156 5.53125 10.273438 5.558594 C 10.257812 5.527344 10.265625 5.09375 10.265625 5.023438 Z M 10.265625 5.023438 "/>
<path style=" stroke:none;fill-rule:nonzero;fill:rgb(8.627451%,34.117648%,19.215687%);fill-opacity:1;" d="M 20.632812 19.699219 C 20.738281 19.691406 20.96875 19.683594 21.0625 19.726562 L 21.0625 19.742188 L 20.988281 19.757812 C 20.894531 19.757812 20.625 19.773438 20.558594 19.730469 C 20.566406 19.675781 20.570312 19.746094 20.632812 19.699219 Z M 20.632812 19.699219 "/>
<path style=" stroke:none;fill-rule:nonzero;fill:rgb(73.333335%,83.529413%,29.411766%);fill-opacity:1;" d="M 2.140625 8.398438 C 2.289062 8.382812 2.476562 8.402344 2.621094 8.425781 L 2.714844 8.519531 C 2.976562 8.558594 3.300781 8.515625 3.601562 8.558594 C 3.613281 8.691406 3.636719 9.390625 3.582031 9.476562 C 3.539062 9.507812 3.535156 9.507812 3.480469 9.515625 C 3.210938 9.519531 2.941406 9.519531 2.671875 9.511719 L 2.648438 9.371094 C 2.601562 9.109375 2.160156 9.324219 2.011719 9.1875 C 1.929688 9.109375 1.980469 8.601562 1.988281 8.46875 C 2.027344 8.445312 2.097656 8.417969 2.140625 8.398438 Z M 2.140625 8.398438 "/>
<path style=" stroke:none;fill-rule:nonzero;fill:rgb(73.333335%,83.529413%,29.411766%);fill-opacity:1;" d="M 8.460938 3.824219 C 8.566406 3.820312 8.851562 3.816406 8.9375 3.863281 C 8.976562 3.964844 8.984375 4.894531 8.925781 4.964844 C 8.816406 5.011719 8.449219 4.996094 8.308594 4.996094 C 8.148438 4.996094 7.996094 4.996094 7.835938 4.988281 C 7.828125 4.625 7.820312 4.207031 7.835938 3.84375 C 8.007812 3.816406 8.277344 3.824219 8.460938 3.824219 Z M 8.460938 3.824219 "/>
<path style=" stroke:none;fill-rule:nonzero;fill:rgb(73.333335%,83.529413%,29.411766%);fill-opacity:1;" d="M 11.277344 2.636719 C 11.574219 2.617188 11.941406 2.621094 12.234375 2.640625 L 12.238281 3.347656 C 12.238281 3.472656 12.242188 3.652344 12.230469 3.777344 C 12.195312 3.808594 12.195312 3.796875 12.140625 3.800781 L 11.167969 3.800781 L 11.160156 3.09375 C 11.160156 2.972656 11.152344 2.777344 11.164062 2.664062 C 11.1875 2.640625 11.242188 2.640625 11.277344 2.636719 Z M 11.277344 2.636719 "/>
<path style=" stroke:none;fill-rule:nonzero;fill:rgb(73.333335%,83.529413%,29.411766%);fill-opacity:1;" d="M 19.515625 4.417969 C 19.78125 4.410156 20.046875 4.410156 20.3125 4.425781 C 20.328125 4.703125 20.316406 5.273438 20.308594 5.546875 C 20.242188 5.554688 20.164062 5.554688 20.097656 5.558594 C 19.832031 5.558594 19.523438 5.5625 19.261719 5.546875 C 19.234375 5.214844 19.242188 4.765625 19.242188 4.429688 Z M 19.515625 4.417969 "/>
<path style=" stroke:none;fill-rule:nonzero;fill:rgb(73.333335%,83.529413%,29.411766%);fill-opacity:1;" d="M 4.203125 7.175781 C 4.484375 7.164062 4.871094 7.171875 5.152344 7.183594 C 5.160156 7.390625 5.152344 7.621094 5.15625 7.828125 C 5.15625 7.941406 5.160156 8.1875 5.144531 8.285156 C 5.097656 8.308594 5.042969 8.304688 4.988281 8.304688 C 4.699219 8.316406 4.386719 8.3125 4.097656 8.3125 C 4.085938 8.125 4.074219 7.359375 4.097656 7.203125 C 4.121094 7.179688 4.164062 7.179688 4.203125 7.175781 Z M 4.203125 7.175781 "/>
<path style=" stroke:none;fill-rule:nonzero;fill:rgb(73.333335%,83.529413%,29.411766%);fill-opacity:1;" d="M 17.640625 2.046875 C 17.933594 2.039062 18.179688 2.035156 18.46875 2.0625 C 18.480469 2.214844 18.488281 3.085938 18.441406 3.179688 C 18.386719 3.203125 18.332031 3.199219 18.269531 3.203125 C 18 3.203125 17.734375 3.199219 17.464844 3.191406 C 17.449219 2.886719 17.429688 2.363281 17.457031 2.066406 Z M 17.640625 2.046875 "/>
<path style=" stroke:none;fill-rule:nonzero;fill:rgb(73.333335%,83.529413%,29.411766%);fill-opacity:1;" d="M 23.453125 7.988281 C 23.742188 7.964844 24.207031 7.976562 24.507812 7.984375 C 24.527344 8.21875 24.515625 8.835938 24.503906 9.074219 C 24.257812 9.097656 23.71875 9.082031 23.453125 9.074219 C 23.449219 8.710938 23.449219 8.351562 23.453125 7.988281 Z M 23.453125 7.988281 "/>
<path style=" stroke:none;fill-rule:nonzero;fill:rgb(73.333335%,83.529413%,29.411766%);fill-opacity:1;" d="M 9.308594 14.117188 C 9.609375 14.113281 9.925781 14.109375 10.226562 14.121094 C 10.234375 14.253906 10.242188 15.011719 10.226562 15.121094 C 10.1875 15.15625 10.1875 15.144531 10.125 15.152344 C 9.792969 15.15625 9.464844 15.15625 9.136719 15.148438 C 9.128906 14.8125 9.128906 14.472656 9.136719 14.132812 Z M 9.308594 14.117188 "/>
<path style=" stroke:none;fill-rule:nonzero;fill:rgb(73.333335%,83.529413%,29.411766%);fill-opacity:1;" d="M 8.183594 5.613281 C 8.476562 5.597656 8.878906 5.601562 9.171875 5.613281 C 9.191406 5.804688 9.222656 6.46875 9.152344 6.621094 C 9.046875 6.648438 8.351562 6.636719 8.191406 6.632812 C 8.160156 6.339844 8.175781 5.914062 8.183594 5.613281 Z M 8.183594 5.613281 "/>
<path style=" stroke:none;fill-rule:nonzero;fill:rgb(73.333335%,83.529413%,29.411766%);fill-opacity:1;" d="M 25.347656 10.726562 C 25.675781 10.726562 26 10.722656 26.324219 10.738281 C 26.332031 10.878906 26.347656 11.683594 26.304688 11.765625 C 26 11.777344 25.644531 11.765625 25.335938 11.761719 C 25.351562 11.4375 25.34375 11.054688 25.347656 10.726562 Z M 25.347656 10.726562 "/>
<path style=" stroke:none;fill-rule:nonzero;fill:rgb(9.019608%,38.431373%,23.137255%);fill-opacity:1;" d="M 6.199219 6.8125 C 6.203125 6.761719 6.195312 6.78125 6.222656 6.746094 C 6.335938 6.699219 7.066406 6.695312 7.144531 6.78125 L 7.136719 6.800781 C 7.152344 6.917969 7.160156 7.660156 7.105469 7.738281 C 6.976562 7.800781 6.355469 7.800781 6.226562 7.757812 C 6.171875 7.695312 6.191406 6.941406 6.203125 6.824219 Z M 6.199219 6.8125 "/>
<path style=" stroke:none;fill-rule:nonzero;fill:rgb(8.627451%,34.117648%,19.215687%);fill-opacity:1;" d="M 6.996094 7.679688 L 7.027344 7.703125 L 7.058594 7.695312 C 7.113281 7.628906 7.066406 6.988281 7.09375 6.816406 L 7.136719 6.800781 C 7.152344 6.917969 7.160156 7.660156 7.105469 7.738281 C 6.976562 7.800781 6.355469 7.800781 6.226562 7.757812 C 6.171875 7.695312 6.191406 6.941406 6.203125 6.824219 C 6.273438 6.890625 6.210938 7.253906 6.242188 7.328125 C 6.246094 7.203125 6.238281 7.035156 6.277344 6.917969 L 6.292969 6.921875 C 6.273438 7.183594 6.28125 7.390625 6.28125 7.648438 L 6.296875 7.667969 L 6.328125 7.660156 C 6.429688 7.679688 6.921875 7.710938 6.996094 7.679688 Z M 6.996094 7.679688 "/>
<path style=" stroke:none;fill-rule:nonzero;fill:rgb(8.627451%,34.117648%,19.215687%);fill-opacity:1;" d="M 6.199219 6.8125 C 6.203125 6.761719 6.195312 6.78125 6.222656 6.746094 C 6.335938 6.699219 7.066406 6.695312 7.144531 6.78125 C 7.058594 6.777344 7.035156 6.796875 6.957031 6.8125 C 6.84375 6.835938 6.71875 6.835938 6.601562 6.839844 C 6.453125 6.847656 6.339844 6.769531 6.199219 6.8125 Z M 6.199219 6.8125 "/>
<path style=" stroke:none;fill-rule:nonzero;fill:rgb(16.862746%,47.058824%,29.411766%);fill-opacity:1;" d="M 6.328125 7.660156 C 6.394531 7.617188 6.949219 7.617188 6.996094 7.679688 C 6.921875 7.710938 6.429688 7.679688 6.328125 7.660156 Z M 6.328125 7.660156 "/>
<path style=" stroke:none;fill-rule:nonzero;fill:rgb(9.019608%,38.431373%,23.137255%);fill-opacity:1;" d="M 11.476562 14.101562 C 11.613281 14.074219 12.246094 14.070312 12.375 14.105469 C 12.402344 14.148438 12.390625 14.144531 12.390625 14.207031 C 12.402344 14.332031 12.410156 14.546875 12.402344 14.671875 C 12.40625 14.828125 12.402344 14.980469 12.402344 15.136719 C 12.140625 15.160156 11.746094 15.148438 11.472656 15.148438 C 11.464844 14.914062 11.457031 14.320312 11.476562 14.101562 Z M 11.476562 14.101562 "/>
<path style=" stroke:none;fill-rule:nonzero;fill:rgb(8.627451%,34.117648%,19.215687%);fill-opacity:1;" d="M 11.476562 14.101562 C 11.613281 14.074219 12.246094 14.070312 12.375 14.105469 C 12.402344 14.148438 12.390625 14.144531 12.390625 14.207031 C 12.382812 14.328125 12.382812 14.449219 12.382812 14.570312 C 12.359375 14.492188 12.375 14.429688 12.351562 14.34375 C 12.289062 14.105469 12.210938 14.132812 12.011719 14.105469 C 11.9375 14.097656 11.617188 14.101562 11.566406 14.140625 C 11.5 14.429688 11.5625 14.703125 11.5625 15 C 11.558594 15.019531 11.59375 15.085938 11.609375 15.085938 C 11.773438 15.09375 12.265625 15.183594 12.363281 15.035156 C 12.367188 14.988281 12.367188 14.636719 12.375 14.621094 L 12.375 14.601562 C 12.382812 14.628906 12.382812 14.652344 12.402344 14.671875 C 12.40625 14.828125 12.402344 14.980469 12.402344 15.136719 C 12.140625 15.160156 11.746094 15.148438 11.472656 15.148438 C 11.464844 14.914062 11.457031 14.320312 11.476562 14.101562 Z M 11.476562 14.101562 "/>
<path style=" stroke:none;fill-rule:nonzero;fill:rgb(73.333335%,83.529413%,29.411766%);fill-opacity:1;" d="M 22.101562 7.464844 C 22.261719 7.460938 22.507812 7.460938 22.660156 7.46875 C 22.675781 7.707031 22.675781 8.066406 22.664062 8.304688 C 22.621094 8.308594 22.574219 8.308594 22.53125 8.3125 C 22.332031 8.3125 22.128906 8.308594 21.925781 8.300781 C 21.914062 8.0625 21.917969 7.726562 21.925781 7.484375 Z M 22.101562 7.464844 "/>
<path style=" stroke:none;fill-rule:nonzero;fill:rgb(9.019608%,38.431373%,23.137255%);fill-opacity:1;" d="M 21.621094 5.871094 C 21.703125 5.851562 22.058594 5.855469 22.167969 5.855469 C 22.234375 5.859375 22.222656 5.847656 22.269531 5.882812 C 22.304688 6 22.292969 6.492188 22.28125 6.632812 C 22.039062 6.636719 21.796875 6.636719 21.554688 6.625 C 21.550781 6.488281 21.53125 5.996094 21.566406 5.886719 C 21.597656 5.863281 21.578125 5.871094 21.621094 5.871094 Z M 21.621094 5.871094 "/>
<path style=" stroke:none;fill-rule:nonzero;fill:rgb(8.627451%,34.117648%,19.215687%);fill-opacity:1;" d="M 22.167969 5.855469 C 22.234375 5.859375 22.222656 5.847656 22.269531 5.882812 C 22.304688 6 22.292969 6.492188 22.28125 6.632812 C 22.039062 6.636719 21.796875 6.636719 21.554688 6.625 C 21.550781 6.488281 21.53125 5.996094 21.566406 5.886719 C 21.597656 5.863281 21.578125 5.871094 21.621094 5.871094 C 21.652344 5.878906 21.683594 5.882812 21.714844 5.890625 L 21.714844 5.90625 C 21.613281 6.050781 21.699219 6.246094 21.65625 6.4375 C 21.636719 6.390625 21.636719 6.367188 21.609375 6.316406 L 21.597656 6.324219 C 21.589844 6.375 21.609375 6.519531 21.613281 6.585938 C 21.691406 6.617188 22.195312 6.664062 22.171875 6.492188 C 22.144531 6.289062 22.191406 6.046875 22.167969 5.855469 Z M 22.167969 5.855469 "/>
<path style=" stroke:none;fill-rule:nonzero;fill:rgb(9.019608%,38.431373%,23.137255%);fill-opacity:1;" d="M 24.394531 13.613281 C 24.5625 13.582031 24.84375 13.589844 25.023438 13.589844 C 25.0625 13.597656 25.070312 13.597656 25.097656 13.628906 C 25.140625 13.75 25.128906 14.167969 25.109375 14.3125 C 25.105469 14.324219 25.085938 14.339844 25.078125 14.34375 C 24.859375 14.339844 24.625 14.347656 24.398438 14.339844 C 24.390625 14.132812 24.386719 13.816406 24.394531 13.613281 Z M 24.394531 13.613281 "/>
<path style=" stroke:none;fill-rule:nonzero;fill:rgb(8.627451%,34.117648%,19.215687%);fill-opacity:1;" d="M 25.023438 13.589844 C 25.0625 13.597656 25.070312 13.597656 25.097656 13.628906 C 25.140625 13.75 25.128906 14.167969 25.109375 14.3125 C 25.105469 14.324219 25.085938 14.339844 25.078125 14.34375 L 25.050781 14.042969 C 25.042969 14.109375 25.042969 14.183594 25.023438 14.25 L 25.007812 14.238281 C 24.964844 14.121094 24.984375 13.871094 24.996094 13.738281 C 25.011719 13.820312 25.023438 13.902344 25.046875 13.980469 L 25.050781 13.996094 L 25.042969 13.972656 L 25.058594 13.953125 C 25.066406 13.789062 25.042969 13.742188 25.023438 13.597656 Z M 25.023438 13.589844 "/>
<path style=" stroke:none;fill-rule:nonzero;fill:rgb(9.019608%,38.431373%,23.137255%);fill-opacity:1;" d="M 5.503906 4.886719 C 5.714844 4.882812 5.921875 4.882812 6.132812 4.886719 C 6.164062 4.90625 6.175781 4.902344 6.179688 4.929688 C 6.210938 5.140625 6.183594 5.429688 6.1875 5.640625 C 6.058594 5.660156 5.652344 5.65625 5.503906 5.65625 C 5.496094 5.417969 5.496094 5.125 5.503906 4.886719 Z M 5.503906 4.886719 "/>
<path style=" stroke:none;fill-rule:nonzero;fill:rgb(8.627451%,34.117648%,19.215687%);fill-opacity:1;" d="M 5.503906 4.886719 C 5.714844 4.882812 5.921875 4.882812 6.132812 4.886719 L 6.128906 4.941406 C 6.042969 4.921875 5.652344 4.890625 5.589844 4.949219 C 5.5 5.03125 5.621094 5.3125 5.574219 5.414062 C 5.601562 5.4375 5.621094 5.449219 5.640625 5.476562 C 5.621094 5.523438 5.609375 5.523438 5.621094 5.558594 C 5.730469 5.550781 5.785156 5.546875 5.882812 5.597656 C 5.898438 5.605469 5.910156 5.601562 5.925781 5.601562 C 5.960938 5.558594 5.976562 5.527344 6.027344 5.507812 C 6.058594 5.523438 6.0625 5.535156 6.082031 5.566406 L 6.105469 5.558594 C 6.125 5.492188 6.101562 5.449219 6.117188 5.425781 C 6.136719 5.496094 6.15625 5.574219 6.1875 5.640625 C 6.058594 5.660156 5.652344 5.65625 5.503906 5.65625 C 5.496094 5.417969 5.496094 5.125 5.503906 4.886719 Z M 5.503906 4.886719 "/>
<path style=" stroke:none;fill-rule:nonzero;fill:rgb(73.333335%,83.529413%,29.411766%);fill-opacity:1;" d="M 9.5 3.359375 C 9.660156 3.359375 9.894531 3.351562 10.046875 3.375 C 10.054688 3.582031 10.074219 3.820312 10.042969 4.023438 C 10.035156 4.089844 10.003906 4.113281 9.949219 4.148438 C 9.820312 4.175781 9.5625 4.164062 9.429688 4.148438 C 9.417969 4.015625 9.394531 3.472656 9.449219 3.371094 Z M 9.5 3.359375 "/>
<path style=" stroke:none;fill-rule:nonzero;fill:rgb(9.019608%,38.431373%,23.137255%);fill-opacity:1;" d="M 6.84375 5.828125 C 7.0625 5.828125 7.292969 5.820312 7.511719 5.851562 C 7.527344 5.984375 7.558594 6.410156 7.511719 6.515625 C 7.371094 6.542969 6.996094 6.535156 6.835938 6.53125 C 6.816406 6.367188 6.832031 6 6.84375 5.828125 Z M 6.84375 5.828125 "/>
<path style=" stroke:none;fill-rule:nonzero;fill:rgb(73.333335%,83.529413%,29.411766%);fill-opacity:1;" d="M 23.441406 14.417969 C 23.589844 14.40625 23.738281 14.414062 23.886719 14.417969 C 23.9375 14.601562 24 14.882812 23.828125 15.011719 C 23.734375 15.027344 23.503906 15.074219 23.429688 15 C 23.328125 14.886719 23.339844 14.523438 23.441406 14.417969 Z M 23.441406 14.417969 "/>
<path style=" stroke:none;fill-rule:nonzero;fill:rgb(73.333335%,83.529413%,29.411766%);fill-opacity:1;" d="M 4.300781 13.945312 C 4.40625 13.9375 4.519531 13.925781 4.625 13.941406 C 4.816406 13.972656 4.800781 14.226562 4.773438 14.371094 C 4.753906 14.46875 4.734375 14.484375 4.652344 14.535156 C 4.382812 14.558594 4.15625 14.566406 4.210938 14.175781 C 4.226562 14.078125 4.226562 14 4.300781 13.945312 Z M 4.300781 13.945312 "/>
</g>
</svg>
